<svg class="page-logo" xmlns="http://www.w3.org/2000/svg" xml:space="preserve" viewBox="0 0 363 71.7" width="363" height="71.7"><title>Optik Dumm</title><path d="M361.7 43.2c-.5.7-1.3 1.5-3.2 3.2-2.4 2.1-6.1 4.7-8.7 4.4-1.8-.2-2-1.3-2-1.9 0-.6 0-1.2.3-1.9l4.5-10.2c1-2.3 1.5-4.4 1.5-6.4 0-3.7-3-5.2-6.5-5.3-5.5-.1-8.1 1.4-9.2 2.5l-1.1 1.1-.4-.4c-1.9-2.8-5.4-3.3-8.1-3.3-4.3 0-6.6 1.5-7.4 2.4-.8.8-.8 1-.8 1l-6.5-3.4L304 47.8c-2.3 1.8-5.1 3.4-7.2 3.1-1.8-.2-2-1.3-2-1.9 0-.6 0-1.2.3-1.9l4.5-10.2c1-2.3 1.5-4.4 1.5-6.4 0-3.7-3-5.2-6.5-5.3-5.5-.1-8.1 1.4-9.2 2.5l-1.1 1.1-.4-.4c-1.9-2.8-5.4-3.3-8.1-3.3-4.3 0-6.6 1.5-7.4 2.4s-.8 1-.8 1l-6.5-3.4L251 47.7c-2.7 1.8-5.5 3.3-7.3 3.3-1.6 0-2.8-.5-2.8-2 0-.7.2-1.3.5-2l8.7-19.7h-9s-8.4 19.2-9.2 21.1c-.8 1.7-3.4 4.7-6.1 4.7-1.6 0-2-.4-1.8-1.7.1-.9 1.1-3.5 1.6-4.6l8.7-19.5h-9L219.4 41c-.5 1-1.2 2.2-2.3 3.5-1.7 2.1-4.5 3.3-6.6 3.3-2.1 0-2.1-2.3-1.8-2.9.2-.5.3-.9.5-1.3.1-.2.2-.4.3-.7l15.7-35.3c.3-.7.9-2.2.8-3.7-.1-1.1-1.4-2.5-3.7-3.1-2.5-.7-6.1-1.2-9.5-.7-3.3.5-7.5 1.8-7.5 1.8h-11.2c-.6 1.3-2.9 6.5-2.9 6.6L169.6 57h12c5.8 0 10.9-1 15.7-3 2.8-1.2 5.2-2.6 7.2-4.3.1.3.1.6.3.8.7 1.1 1.4 1.8 3.7 2 2.9 0 5.4-1.1 7.9-3.3-.2 1-.4 1.9-.4 2.6 0 1.3 0 5.2 8.4 5.2 2.7 0 5.2-1 6.5-2.1 1-.9 1.6-1.5 2-2.2 0 0-.3 1.1.2 2.2.5 1.2 1.6 2 3.3 2 3.8 0 7-1.4 11.8-4.1.4-.2.7-.4 1.1-.6l-2.1 4.7h10.4L269 31.2c.8-1.8 2.2-2.7 4-2.7 1.8 0 2.5 1.1 2.5 2.3 0 .4-.1.7-.2 1l-.1.4-11 24.8h10.3l11.4-25.7c.8-1.8 2.3-2.7 4.1-2.7 1.8 0 2.4 1.2 2.4 2.3 0 .4-.1.7-.2 1l-.1.3-8 17.8c-.5 1-.7 2-.7 3.2 0 1.6.6 2.7 2.3 3.4.6.3 1.6.5 2.3.5 3.8 0 7.9-1.3 12.9-4 .4-.2.8-.4 1.1-.7l-2.1 4.7h10.4l11.4-25.7c.8-1.8 2.2-2.7 4-2.7 1.8 0 2.5 1.1 2.5 2.3 0 .4-.1.7-.2 1l-.1.4-11 24.8h10.3l11.4-25.7c.8-1.8 2.3-2.7 4.1-2.7 1.8 0 2.4 1.2 2.4 2.3 0 .4-.1.7-.2 1l-.1.3-8 17.8c-.5 1-.7 2-.7 3.2 0 1.6.6 2.7 2.3 3.4.6.3 1.6.5 2.3.5 3.8 0 7.9-1.3 12.9-4 4.7-2.6 7.5-5.7 9.3-8.1l-1.2-2zm-171.2 7.3c-1.5.6-3 .7-4.1.7-1.4 0-2.4-.4-2.4-1.7 0-.5.1-1 .4-1.5l16.7-37.5c1.7-3.7 4.2-5.5 7.7-5.5 4.4 0 4.9 3 4.9 4.2 0 .8-.2 1.6-.5 2.3l-13.7 30.6c-1.8 4.2-4.1 6.5-9 8.4zM157 47.4c-2.8 2.1-4.6 3.2-6.6 3.4-1.7.1-2.8-.4-2.8-2 0-.7.2-1.5.7-2.5 1.2-2.6 1.8-4.8 1.8-6.3 0-1.3-.6-2.5-1.7-3-1.1-.4-2.9-.3-2.9-.3l3-1.3c3.4-1.4 5.3-3.4 6.5-5.4.6-1.1.8-2 .7-2.8-.1-1-.6-2.3-4-2.3-3.5 0-6.4.8-9.7 2.8l-2.5 1.7L152 1.1h-10.3l-19.5 43.7c-2.4 2.9-5.4 5.9-8.6 6.1-1.6.1-2.6-.5-2.6-2 0-.6.1-1.2.5-2l8.8-19.9h-9.6s-3.3 7.4-6.1 13.7c-1.8 2-4.5 4.7-7.4 7-1.9 1.6-3.9 3.1-5.8 3.1-1.6 0-2-.5-2.3-1.4-.3-.8 0-1.9.2-2.3l7.5-16.9h5.3l1.5-3.3h-5.3l11.6-26H99.7L88 27.1h-5l-1.5 3.3h5.2l-5.5 12.9c-.4.5-.8 1.1-1.4 1.8-1.6 2.1-4 3.1-6.1 2.9-2.4-.2-2.2-2.4-1.9-3.1.3-.8.5-1.4.7-1.7 2.5-5.8 3.8-9.8 3.8-11.9 0-2-.8-4.3-6.7-4.3-3.6 0-6.5 1-8.8 2.5-.7.4-1.3.9-1.3.9l1.4-3.4-6.9.1-5.5 12.3c-.9 1.9-2.3 3.5-4.2 5.4-1.9 2-4.5 3.3-6.6 3.3-2.1 0-2.1-2.3-1.8-2.9.3-.8.9-2.1.9-2.1 2.7-6.1 8.2-18.2 8.9-20 .4-.9 1-2.4 1.7-4.1 1.3-2.9 2.8-6.4 3.8-9.1 1.6-4.2-.9-5.6-1.4-6-2.1-1.6-6.9-3-14.3-3.1h-.1c-3.7 0-7.3.8-10.4 2.5-3.8 2-6.4 4.7-8 8.2L.9 47.5c-.7 1.7-.9 3-.9 3.8 0 3.9 4.4 5.9 13.4 5.9 8.5 0 14.7-2 18.6-5.9.7.9 1.8 1.5 3.5 1.7 3.2 0 5.9-1.3 8.8-4L34.1 71.7h10.1l7.1-15.9 1.2.6c.9.5 1.9.7 3 .7 2 0 4.1-.7 6.2-1.9 2.1-1.2 4.1-2.8 5.7-4.8 0 .1.1.2.1.2.7 1.1 1.5 2 3.7 2 2.5.1 4.7-.8 6.9-2.4-.2.5-.3 1-.3 2 0 .6.4 2.3 1.5 3.2 1 .8 2.6 1.4 3.8 1.6 3 .4 7.1-.4 10.4-2.6 2.7-1.8 6-5 8.4-7.6-.6 1.4-1 2.3-1.1 2.6-.5 1.2-.8 2.2-1 3.3-.2 1.2.3 2.5 1.2 3.3.9.8 2.7 1.4 4.2 1.3 3.9 0 7.2-.7 11.8-4 .8-.5 1.5-1.1 2.2-1.8l-2.6 5.8H127l6.5-14.8c.8-1.8 2.2-2.7 4-2.7 1.8 0 2.4 1.2 2.4 2.3 0 .7-.5 2-2.2 5.5-1.5 3.2-1.9 5-1.9 5.9 0 1.4.7 2.4 2.1 3.2.9.4 1.6.6 2.3.6 3.9 0 8.2-1.3 13.1-4 4.8-2.6 7.3-5.6 9.2-8.2l-1.3-1.8c-.8 1.2-2.3 2.7-4.2 4.1zM17.7 51.3c-4.5 0-5.6-1.5-5.6-2.7 0-.7.9-2.9 1.2-3.4L29.5 8.4c1-1.9 2.3-3.1 4.2-3.4.7-.1 1.4-.2 2.1-.2 2.2 0 3.7.6 4.5 1.8.8 1.3.8 2.9-.3 5.7-.1.3-.8 1.9-1.4 3.4L24.9 46c-1.5 3.5-4 5.3-7.2 5.3zM68 32.7l-7.6 16.9c-1.2 2.7-2.6 4.1-4.2 4.1-.8 0-1.8-.3-1.8-1.7 0-1 .4-2.1.8-2.9l7.3-16.4c.6-1.4 2-2.6 3.5-2.6 2 0 2.2 1.2 2.2 1.7-.1.2-.1.4-.2.9zm71.3 3.2c-1 .2-2.9.5-2.9.5s1.4-2.3 2.4-3.4c.9-1 4.2-3.8 6.8-3.8 1.8 0 2.7.6 2.7 1.7 0 .2 0 .6-.2 1-.5 1.2-2.1 1.9-4.7 2.9-2.1.7-3 .8-4.1 1.1z"/><path d="M120 21.9c3.3-1.1 5.5-3.6 4.9-5.6s-3.9-2.8-7.2-1.7c-3.3 1.1-5.5 3.6-4.9 5.6.6 2.1 3.9 2.8 7.2 1.7z"/></svg>
