<svg xmlns="http://www.w3.org/2000/svg" xml:space="preserve" viewBox="0 0 267.5 31.5"><path d="m266.1 7.8 1.4-7.4h-21.9l-.3 1.2c2.9.3 3.8.4 3.2 3.1l-4.7 22.1c-.5 2.5-1.2 2.7-4.5 3.1l-.3 1.2h13.4l.3-1.3c-4.2-.3-5.3-.9-4.7-3.6l2.1-9.8h6c1.9 0 2.2 1.5 2.1 4.1h1.2l2-9.6h-1.2c-1 2.6-2 4.1-3.8 4.1h-6l2.8-13.1h7c3 0 4.5 1.3 5.1 6h.8v-.1zm-32.6 23.3 3.2-8.5h-1.1c-3.3 4.5-5.3 7.1-9 7.1H224c-3 0-4.2-.6-3.7-3l4.7-22c.5-2.5 1.2-2.7 4.5-3.1l.3-1.2H218l-.3 1.2c2.9.3 3.8.4 3.2 3.1l-4.7 22.1c-.5 2.5-1.2 2.7-4.5 3.1l-.3 1.2h22.1zm-23.6-19.2c0-6.4-3.7-11.9-11.3-11.9-10.1 0-16.7 10.6-16.7 19.6 0 6.4 3.7 11.9 11.3 11.9 10.1 0 16.7-10.7 16.7-19.6zm-4.4 0c0 7.8-4.5 18.2-12.3 18.2-4.9 0-6.9-4.6-6.9-10.4 0-7.8 4.5-18.2 12.3-18.2 4.9-.1 6.9 4.5 6.9 10.4zM183 1.6l.3-1.2h-8.5l-.3 1.2c3 .1 3.6.7 3.6 1.6 0 .7-.5 1.4-.8 2.1l-11 19.7L164 5.2c0-.3-.1-.9-.1-1.4 0-1.5 1-2 4.4-2.2l.3-1.2h-10.4l-.3 1.2c1.1.2 2.1.4 2.2 1.6l.8 7.3-8.3 14.7-2.7-20c0-.3-.1-.9-.1-1.4 0-1.5 1-2 4.4-2.2l.3-1.2h-10.8l-.3 1.2c1.1.2 2.1.4 2.2 1.6l4.1 28.2h1l10.6-18.5 2.2 18.5h.9l15.7-28.2c.7-1.3 1.7-1.4 2.9-1.6zm-53.1 0 .3-1.2h-8.7l-.3 1.2c2.7.1 3.5.4 3.5 1.4 0 .7-.8 1.7-1.2 2.3L114.4 17l-4.2-11.7c-.2-.7-.4-1.2-.4-1.9 0-1.2.8-1.7 4.3-1.7l.3-1.2h-10.8l-.3 1.2c1.2.2 1.8.5 2.2 1.6l5.4 15.5-1.7 7.9c-.5 2.5-1.3 2.8-4.9 3.2l-.3 1.2h12.4l.3-1.2c-3.2-.3-4.2-.5-3.6-3.2l1.7-8L127 3.2c.9-1.1 1.7-1.4 2.9-1.6zM98.8 12.7C98.8 5.2 93.7.4 85.1.4H74l-.3 1.2c2.9.4 3.8.4 3.2 3.1l-4.7 22.1c-.5 2.5-1.2 2.7-4.5 3.1l-.3 1.2h12.3c10.8 0 19.1-7.1 19.1-18.4zm-4.4 0c0 10.3-6.1 16.9-14.1 16.9h-.7c-2.7 0-3.8-.5-3.2-3.1l5.2-24.6h2.8c6.9 0 10 4.1 10 10.8zM69.5 1.6l.3-1.2H59.4l-.3 1.2c3.4.2 4.6.7 4.1 3.1l-4.1 20L46.1.5h-6.6l-.3 1.2c2.2 0 2.7.7 3.8 2.7l-4.8 22.5c-.5 2.5-1.2 2.7-4.5 3.1l-.3 1.2h10.3L44 30c-3.4-.2-4.6-.7-4.1-3.1L44.3 6l13.9 25.3h1.1L65 4.7c.5-2.5 1.2-2.7 4.5-3.1zM29.9 31.1l.2-1.2c-1.2-.1-2-.4-2.2-1.6L22.3 0h-4.2l.6 2.8L3.1 28.3c-.7 1.2-1.7 1.5-2.9 1.6L0 31.1h8.9l.2-1.2c-2.4-.1-3.6-.4-3.6-1.5 0-.5.3-1.2.9-2.2l3.6-5.9h12.4l1.2 5.9c.1.4.1.8.1 1.1 0 2.3-2 2.4-4.4 2.5l-.3 1.3h10.9zM22 18.9H10.7l8.6-14.1L22 18.9z"/></svg>
