<svg xmlns="http://www.w3.org/2000/svg" width="127" height="30"><path d="M17.188 0c3.622 0 6.394.74 8.316 2.218 1.96 1.442 2.939 3.475 2.939 6.1 0 1.22-.148 2.55-.444 3.992l-2.162 10.093a57.828 57.828 0 0 0-1.053 6.932h-6.598c.11-1.664.277-2.995.499-3.993C16.17 28.447 12.826 30 8.649 30c-2.624 0-4.73-.665-6.32-1.996C.776 26.636 0 24.898 0 22.79c0-7.246 6.949-10.924 20.847-11.035a10.698 10.698 0 0 1 .222-1.165c.148-.813.222-1.386.222-1.719 0-2.44-1.516-3.66-4.547-3.66-3.364 0-5.433 1.424-6.21 4.27h-7.43C3.77 6.377 5.36 4.03 7.875 2.44 10.386.813 13.49 0 17.187 0Zm-5.822 25.065c2.07 0 3.789-.629 5.156-1.886 1.405-1.257 2.366-2.902 2.883-4.935l.5-2.274c-8.391.296-12.586 2.274-12.586 5.934 0 .961.332 1.737.998 2.329.702.554 1.718.832 3.049.832ZM52.668 0c2.624 0 4.675.702 6.154 2.107 1.515 1.405 2.273 3.346 2.273 5.823 0 1.257-.11 2.366-.333 3.327l-3.825 18.078h-7.319l3.493-16.58c.185-.999.277-1.794.277-2.385 0-1.405-.37-2.459-1.108-3.161-.703-.74-1.756-1.11-3.16-1.11-1.886 0-3.53.722-4.935 2.163-1.368 1.405-2.292 3.235-2.773 5.49l-3.326 15.583h-7.319l4.658-22.07c.628-2.81.96-5.01.998-6.6h6.653a39.76 39.76 0 0 1-.5 4.548C45.09 1.738 48.455 0 52.669 0ZM85.066 0c2.624 0 4.675.702 6.154 2.107 1.515 1.405 2.273 3.346 2.273 5.823 0 1.257-.11 2.366-.332 3.327l-3.826 18.078h-7.319l3.493-16.58c.185-.999.277-1.794.277-2.385 0-1.405-.37-2.459-1.109-3.161-.702-.74-1.755-1.11-3.16-1.11-1.885 0-3.53.722-4.934 2.163-1.368 1.405-2.292 3.235-2.773 5.49l-3.326 15.583h-7.319l4.658-22.07c.628-2.81.96-5.01.998-6.6h6.653a39.76 39.76 0 0 1-.5 4.548C77.489 1.738 80.853 0 85.067 0ZM127 .665l-4.657 22.07c-.296 1.295-.499 2.44-.61 3.439a41.385 41.385 0 0 0-.111 3.16h-6.709c0-1.515.148-3.086.444-4.713-2.514 3.586-5.803 5.379-9.869 5.379-2.588 0-4.639-.684-6.155-2.052-1.478-1.368-2.217-3.198-2.217-5.49 0-1.035.147-2.31.443-3.826L101.385.665h7.318l-3.659 17.19c-.185.999-.277 1.812-.277 2.44 0 1.184.333 2.09.998 2.718.702.591 1.719.887 3.049.887 1.738 0 3.272-.684 4.602-2.052 1.368-1.404 2.329-3.197 2.883-5.378L119.681.665H127Z"/></svg>
