<svg xmlns="http://www.w3.org/2000/svg" xmlns:xlink="http://www.w3.org/1999/xlink" xml:space="preserve" viewBox="0 0 1987.2 446.4"><path d="M0 0h1987.2v446.4H0z"/><defs><path id="a" d="M0 0h1987.2v446.4H0z"/></defs><clipPath id="b"><use xlink:href="#a" overflow="visible"/></clipPath><path fill="#FFF" d="M1596 292.6c0 20.8.6 42.2 1.3 61L1390.8 0h-105.1v446.4h69.9V125.9c0-18.9 0-35.9-1.3-57.9L1572 446.5h94.4V0H1596v292.6zM1698.5 0v58.5h109.7v387.9h69.9V58.5h109.1V0zM917.8 386.4H757.5V0h-70.8v446.4h234.5l37.9.1 75.9-131.9h140.6v131.9h69.9V0h-105.1L917.8 386.4zm257.7-260.5V256h-106.9l108.2-188c-1.3 22-1.3 39-1.3 57.9M257 0 0 446.3l75.8.1 75.9-131.9h140.6v131.9h69.9V59.3h111.2v387.1h70.8V59.3h110.6V0H257zm-71.7 256L293.5 68c-1.3 22-1.3 39-1.3 57.9V256H185.3z" clip-path="url(#b)"/></svg>
