<?xml version="1.0" encoding="utf-8"?>
<!-- Generator: $$$/GeneralStr/196=Adobe Illustrator 27.6.0, SVG Export Plug-In . SVG Version: 6.00 Build 0)  -->
<svg version="1.1" id="Ebene_1" xmlns="http://www.w3.org/2000/svg" xmlns:xlink="http://www.w3.org/1999/xlink" x="0px" y="0px"
	 viewBox="0 0 430 190.7" enable-background="new 0 0 430 190.7" xml:space="preserve">
<g>
	<g>
		<path fill="none" d="M314.9,78.4c-1.9,0-10.2,23.2-10.2,23.2c0,1.3,0.2,1.2,1.1,1.2c1.5,0,10.9-4.9,10.9-4.9
			S317.2,78.4,314.9,78.4z"/>
		<path fill="none" d="M220,86.4c-1.3,0-13.9,33.2-13.9,36.9c4.6,0,18.6-6.3,18.6-6.3C224.7,113.3,221.1,86.4,220,86.4z"/>
		<path d="M410.2,92.1c-12.7-0.1-49,17.1-54.3,17c-3.6,0-3.2-4.1-3.2-4.1s5-25.7,5.1-32.8c0.1-10.5-1.6-14-6.2-14.1
			c-10.5-0.1-9.9,27.9-10.9,28.9c0,1.9-8.3,5.2-9.1,4.4c0,0-3.4-33.2-10.5-40.5c-2.1-2.1-5.8-1.7-7.5-0.1
			c-6.7,6.6-25.7,55.6-25.7,55.6c-1.3,0-8.1,4.4-8.2,11.9c-3.3,3.2-14.5,5.1-14.5,5.1s-3-0.8-0.5-3.3c0,0,19-30.7,19.1-45.2
			c0.1-8.6-8.6-7.7-8.6-7.7c-14.9-0.1-32.5,9.5-32.5,15.4c0,4.1,3.6,7.2,7.4,7.2c4.7,0,16.5-6.5,16.5-6.5c1.7,0,1.8,0,1.8,1.6
			c0,5.8-23.9,42.7-23.9,42.7c-1.8,1.8-2.1-0.5-2.1-0.5l-0.6-3.4c0,0,12-10.5,12-14.9c0-2.5-2.8-2-2.8-2c-3,0-9.6,3.3-9.6,3.3
			c-1.5,1.4-2.7-0.2-2.7-0.2c-2-2-7.2-44.6-10.8-48.2c-2.4-2.5-8-3.7-10.5-1.2c-1.8,1.8-1.2,2.8-2,3.6c-0.9,0.9-2,1.2-2,1.2
			c-6.4,6.3-25,62.1-25,62.1c0,1.8-17.2,1.8-17.3,11.2c0,4.7,6.6,6.6,9.4,6.6c1.8,0,5.8-0.8,5.8-0.8c3.3,3.4,5.5,2.7,5.5,2.7
			c4.6,0,7.8-7.2,9-7.2c1.8,0,26.7-8.5,26.7-8.5c1.5,0,1.8,1.9,0.9,2.8c0,0-13.7,5.9-33.4,13.3c-34.1,12.6-87,29.6-123.5,29.3
			c-30.7-0.3-54.6-9.1-57.7-29.4c-0.2-1.6-0.4-3.2-0.3-4.9c0.3-32,75.5-68.1,131.4-67.7c21.9,0.2,22.4,4.6,26.4,8.7
			c3.2,3.3,6.5,2.7,6.5,2.7c5.2,0,7.2-2.8,7.3-5.9c0-2.7-1.8-5-1.7-11.2c0,0,5.3-47.1,5.4-59.5c-1.8-1.8-4-6.5-4-6.5l0-1.2
			c0,0-0.6-2.1-3.5-2.1c-2.6,0-6.5,3.3-6.5,6.8l-5,56.6c-0.7,0-1.2,0.5-1.2,1.1c0,0-17.4-3.6-26.1-3.7C95.8,60.4,0.4,93.1,0,143.9
			c0,1.3,0,2.5,0.1,3.7C2.4,177,35.1,190.4,71,190.7c53.7,0.5,147-38.6,159.1-42.9c0.5-0.2,1.2-0.4,1.3-0.4c0.1,0,0.3,0.3,0.4,0.5
			c0.7,2,0.7,10.4,6.9,10.5c4.9,0.1,6.5-5.7,6.9-10.4h0c0-0.1,0-0.1,0-0.1c0,0,0-0.1,0-0.1h0c0.2-3.1,0-5.9,0-5.9
			c0.8,0,4.4-1.9,5.1-2.5c12.8,0.1,24.1-4.6,24.1-4.6c1.3,0,0.6,4.4,6,4.4c6.6,0.1,11-11.7,11-11.7c7.8,0.1,25.1-13.1,26.7-11.5
			c1.8,1.8-3.2,22.8,8.5,22.9c9.1,0.1,4.3-32.6,5.8-34c2.5-2.4,6.4-3.4,6.4-3.4c0.8,0.8-1.2,4-1.2,11.6
			c-0.1,11.9,10.4,11.3,10.4,11.3c11.5,0.1,49.9-17.1,57.2-17c0,0,11.5,0.2,11.6-8.5C417.5,91.5,410.2,92.1,410.2,92.1z
			 M206.1,123.3c0-3.7,12.5-36.9,13.9-36.9c1.1,0,4.7,26.9,4.7,30.5C224.7,116.9,210.7,123.3,206.1,123.3z M316.8,97.9
			c0,0-9.5,5-10.9,4.9c-0.9,0-1.1,0.1-1.1-1.2c0,0,8.3-23.2,10.2-23.2C317.2,78.4,316.8,97.9,316.8,97.9z"/>
	</g>
	<path d="M259.3,190.2l0-23.3l12.4,0l0,2.6l-9.4,0l0,7.7l7.8,0l0,2.6l-7.8,0l0,7.8l10.7,0l0,2.6L259.3,190.2z"/>
	<path d="M289.1,179.4l0,10.8l-2.9,0l0-10.8l-8.9-12.6l3.3,0l4.9,6.8c0.7,1.1,1.6,2.3,2.3,3.4h0.1c0.7-1.1,1.6-2.5,2.3-3.4l4.9-6.8
		l3.1,0L289.1,179.4z"/>
	<path d="M304.7,190.1l0-23.3l12.4,0l0,2.6l-9.4,0l0,7.7l7.8,0l0,2.6l-7.8,0l0,7.8l10.7,0l0,2.6L304.7,190.1z"/>
	<path d="M348.5,190.5h-1l-4.5-13c-0.7-1.9-1.4-4-2.1-6.5h-0.1c-0.7,2.6-1.4,4.6-2.1,6.5l-4.5,13l-1.1,0l-8.3-23.7l3,0l4,11.6
		c0.6,1.7,1.4,3.7,1.9,5.7h0.1c0.5-2,1.2-4,1.8-5.7l3.9-11.6l2.6,0l4,11.6c0.6,1.7,1.2,3.8,1.8,5.7h0.1c0.5-1.9,1.3-4,1.9-5.7
		l4-11.6l2.7,0L348.5,190.5z"/>
	<path d="M364.8,190.1l0-23.3l12.4,0l0,2.6l-9.4,0l0,7.7l7.8,0l0,2.6l-7.8,0l0,7.8l10.7,0l0,2.6L364.8,190.1z"/>
	<path d="M402.1,190l-2.6-6.3l-9.5,0l-2.6,6.3l-3,0l9.7-23.7l1.1,0l9.8,23.7L402.1,190z M395.9,174.9c-0.4-0.9-0.8-2.1-1.1-3.2h-0.1
		c-0.3,1.1-0.8,2.3-1.1,3.2l-2.6,6.4l7.4,0L395.9,174.9z"/>
	<path d="M426.3,190l-7.5-10.5l-3.2,0l0,10.5l-3,0l0-23.3l6.7,0c3.4,0,7,2.2,7,6.4c0,3.1-1.9,5.1-4.3,6L430,190L426.3,190z
		 M418.8,169.3l-3.3,0l0,7.8l3.3,0c2.3,0,4.4-1.3,4.3-3.9C423.2,170.7,421.1,169.3,418.8,169.3z"/>
</g>
</svg>
