<?xml version="1.0" encoding="utf-8"?>
<!-- Generator: Adobe Illustrator 19.0.0, SVG Export Plug-In . SVG Version: 6.00 Build 0)  -->
<svg version="1.1" id="layer" xmlns="http://www.w3.org/2000/svg" xmlns:xlink="http://www.w3.org/1999/xlink" x="0px" y="0px"
	 viewBox="-153 -46 652 652" style="enable-background:new -153 -46 652 652;" xml:space="preserve">
<style type="text/css">
	.st0{fill:#58595B;}
	.st1{fill:#174A7C;}
</style>
<polygon class="st0" points="-48.5,295.9 -12.9,295.9 -15.1,290.6 -40.8,290.6 -40.8,275.8 -17.3,275.8 -17.3,270.5 -40.8,270.5 
	-40.8,257 -15.2,257 -13.1,251.9 -48.5,251.9 "/>
<polygon class="st0" points="103.4,295.9 111.2,295.9 111.2,275.9 139.6,275.9 139.6,295.9 147.4,295.9 147.4,251.9 139.6,251.9 
	139.6,270.5 111.2,270.5 111.2,251.9 103.4,251.9 "/>
<polygon class="st0" points="161.8,295.9 197.5,295.9 195.2,290.6 169.5,290.6 169.5,275.8 193,275.8 193,270.5 169.5,270.5 
	169.5,257 195.1,257 197.2,251.9 161.8,251.9 "/>
<polygon class="st0" points="209,295.9 216.8,295.9 216.8,260 243.1,295.9 252.4,295.9 252.4,251.9 244.6,251.9 244.6,286.2 
	219.5,251.9 209,251.9 "/>
<g>
	<path class="st0" d="M264.8,295.9h24.9c10.4,0,17.4-5.1,17.4-12.5c0-2.6-1-4.8-2.9-6.7c-2.4-2.3-5.2-3.5-10.7-4.5
		c3.1-0.8,11.6-3.1,11.6-10.1c0-6.1-7.2-10.3-17.7-10.3h-22.6V295.9z M286.4,274.9c8.3,0,12.7,2.9,12.7,8.2c0,4.9-4.8,7.6-13.3,7.6
		h-13.1v-15.9H286.4z M286.1,256.9c7.1,0,10.8,2.1,10.8,6.1c0,4.4-4,6.7-12,6.7h-12.3v-12.8H286.1z"/>
	<path class="st0" d="M309.9,295.9h8l6.1-10.6h28.7l6.1,10.6h7.9l-24.9-44h-6.9L309.9,295.9z M349.5,279.8h-22.6l11.4-20.1
		L349.5,279.8z"/>
	<path class="st0" d="M410.1,283.4c-1.6,2.5-2.4,3.5-4.2,4.8c-3.3,2.5-7.6,3.8-12.1,3.8c-4.3,0-18.3-1.4-18.3-18
		c0-10.6,7.6-17.8,18.8-17.8c10.6,0,13.5,6.3,15,9.5l6-4c-0.7-2.1-5.4-11-21.5-11c-15.9,0-26.7,9.8-26.7,24.4
		c0,3.8,1.8,22.2,26.8,22.2c14.3,0,19.3-6.6,21.5-9.7L410.1,283.4z"/>
	<polygon class="st0" points="424.2,295.9 432,295.9 432,275.9 460.4,275.9 460.4,295.9 468.2,295.9 468.2,251.9 460.4,251.9 
		460.4,270.5 432,270.5 432,251.9 424.2,251.9 	"/>
	<path class="st1" d="M-131.8,249.9v22.1h65v-22.1c0,0-11.2,9.2-32.8,9.2C-121.3,259.1-131.8,249.9-131.8,249.9 M-131.8,300.1v-22.1
		h65v22.1c0,0-11.2-9.2-32.8-9.2C-121.3,290.9-131.8,300.1-131.8,300.1"/>
	<path class="st0" d="M-6.5,285.8c1.3,3.1,2.1,4.3,3.9,5.9c4.2,3.8,10.7,5.8,18.6,5.8c13.6,0,22.5-5.6,22.5-14.1
		c0-10-12.1-12.6-20.7-14.1c-5.4-1-13.7-2.6-13.7-6.7c0-3.9,4.7-6.3,12.1-6.3c11.4,0,13.7,5.4,14.8,8.1l5.8-4.2
		c-1.4-2.4-5.1-9.3-20-9.3C4.4,250.7-4,255.5-4,262.5c0,2.9,1.3,5.3,4.3,7.8c4.8,3.1,6.5,3.6,15.3,5.2c10.8,1.9,14.5,4.1,14.5,8.4
		c0,4.5-5.6,8.2-12.7,8.2c-4.9,0-9-1-12-3c-2.9-1.8-4.3-3.8-5.4-7.5L-6.5,285.8z"/>
	<path class="st0" d="M87.7,283.4c-1.6,2.5-2.4,3.5-4.2,4.8c-3.3,2.5-7.6,3.9-12.1,3.9c-4.3,0-18.3-1.4-18.3-18
		c0-10.6,7.6-17.8,18.8-17.8c10.6,0,13.5,6.3,15,9.5l6-4c-0.7-2.1-5.4-11-21.5-11c-15.9,0-26.7,9.8-26.7,24.4
		c0,3.8,1.8,22.2,26.8,22.2c14.3,0,19.2-6.6,21.5-9.6L87.7,283.4z"/>
</g>
</svg>
