<svg xmlns="http://www.w3.org/2000/svg" xml:space="preserve" viewBox="0 0 429.7 49"><path fill="#1E1E1C" d="M42.5 28.5C42.2 41.4 34.9 49 22.4 49 8.8 49 0 39.7 0 24.5 0 9.7 9.2 0 22.4 0c8.9 0 16 4.3 18.8 12l-6.9 4.1c-1.8-5.4-5.8-8.7-12-8.7-9.3 0-13.6 6.9-13.6 17.1 0 10.5 3.9 17.1 13.6 17.1 7.9 0 12.1-5.3 12.4-11.9H21.2v-7.4h21.3v6.2zm255-19.8h-9.9v31.2h9.2c9.4 0 12.7-6.1 12.7-15.6s-4-15.6-12-15.6zm-1.7 38.9H279V1.3h18.4c12 0 20.7 7.3 20.7 23.1 0 15.4-8.7 23.2-22.3 23.2zM50.4 1.3H59v46.3h-8.6V1.3zm378.2 9-6.6 4.6s-3.2-7.5-12.4-7.5c-6.4 0-9.2 2.6-9.2 5.9 0 2.7 1.8 4.5 7.1 6 3.3.9 6.6 1.7 10.1 2.3 6 1.2 12.2 4.7 12.2 12.6 0 8.7-7.9 14.6-18.4 14.6-7.3 0-18.2-2.7-21-13.8l7.3-2.7c1 2.2 3.6 8.8 13.8 8.8 6.9 0 9.4-3.2 9.4-6 0-3.1-2-4.9-5.8-5.7-4.4-.9-7.7-1.6-11.2-2.6-6-1.6-12.2-5.5-12.2-13.2 0-8.9 8.7-13.6 17.8-13.6 9.4.1 16.4 4.6 19.1 10.3zm-64.4 31.2c7.8 0 13.2-5.6 13.2-17 0-9.6-4.1-17.2-13.2-17.2-8.7 0-13.3 7.1-13.3 17.2 0 9.8 4.2 17 13.3 17zm0-41.5c12.9 0 21.9 9.7 21.9 24.5 0 15.5-9.5 24.4-21.9 24.4-13.4 0-22-9.5-22-24.4 0-14.8 9.1-24.5 22-24.5zm-38.3 1.3h8.5v46.3h-8.5V1.3zm-93.8 0h8.7v29.6c0 5.9 3.6 10.4 10.3 10.4 6.8 0 10.1-4.5 10.1-10.4V1.3h8.8v29.4c0 11.7-7.3 18.1-19.2 18.1-10 0-18.7-5.8-18.7-17.5v-30zm-45.2 7.4V1.3h39.3v7.4h-15.4v38.9h-8.7V8.7h-15.2zm-3.8 1.6-6.6 4.6s-3.2-7.5-12.4-7.5c-6.5 0-9.2 2.6-9.2 5.9 0 2.7 1.8 4.5 7.1 6 3.3.9 6.6 1.7 10.1 2.3 6 1.2 12.2 4.7 12.2 12.6 0 8.7-7.9 14.6-18.4 14.6-7.3 0-18.2-2.7-21-13.8l7.3-2.7c.9 2.2 3.6 8.8 13.8 8.8 6.9 0 9.4-3.2 9.4-6 0-3.1-2-4.9-5.8-5.7-4.4-.9-7.6-1.6-11.1-2.6-6-1.6-12.2-5.5-12.2-13.2C146.3 4.7 155 0 164.1 0c9.3.1 16.3 4.6 19 10.3zm-65.9-9h8.6v46.3h-8.6V1.3zm-7.8 27.2c-.2 12.9-7.6 20.5-20 20.5C75.8 49 67 39.7 67 24.5 66.9 9.7 76.1 0 89.4 0c8.9 0 16 4.3 18.8 12l-6.9 4.1c-1.8-5.4-5.8-8.7-12-8.7-9.3 0-13.6 6.9-13.6 17.1 0 10.5 3.9 17.1 13.6 17.1 7.9 0 12.1-5.3 12.4-11.9H88.2v-7.4h21.3v6.2z"/></svg>
