<?xml version="1.0" encoding="utf-8"?>
<!-- Generator: $$$/GeneralStr/196=Adobe Illustrator 27.6.0, SVG Export Plug-In . SVG Version: 6.00 Build 0)  -->
<svg version="1.1" id="Calque_2" xmlns="http://www.w3.org/2000/svg" xmlns:xlink="http://www.w3.org/1999/xlink" x="0px" y="0px"
	 viewBox="0 0 212.6 27.7" enable-background="new 0 0 212.6 27.7" xml:space="preserve">
<g>
	<path d="M188.8,5.3c-22.4,0-26,3.8-29.4,10.1c0,0-0.8,1.4-1,2c0.3,0,1.6,0,1.6,0c6.9,0,13.1,0.2,16.2-2.4c1.3-1.1,2.2-3.7,3.4-4.9
		c2.8-2.8,4.9-2.9,14.7-2.9c0.2,0,1.3,0,1.4,0c-0.5,1.1-1.4,2.8-2,4.1c-0.5,0.9-0.9,1.9-1.3,2.6c0,0-1.3,2.4-1.3,2.4
		c-4.6,8.4-16.7,7.9-32.7,8c0,0-8.3,0.1-8.4,0.1c-0.1,0-2.1,2.9-2.5,3.2c0.7,0,3.5,0,3.5,0l19.7,0c26.5,0,33.5-4.5,37.1-12.7
		c0.8-1.7,3.4-7.3,4.6-9.8C212.2,5.2,188.8,5.3,188.8,5.3z"/>
	<g>
		<polygon points="72.2,0 64.3,27.7 69.8,27.7 77.8,0 		"/>
		<path d="M81.2,0.1l-8,27.6h22.3c5.8,0,10.3-2.3,11.2-5.8l1.5-5.1c0,0,0.2-0.6,0.2-1.2c0-0.6-0.2-1.5-0.6-2.1c-1-1.5-3-2.3-5.6-2.3
			H88.1c-2.9,0-4.7,0.9-5,1.5c0.6-2.3,3.6-12.6,3.6-12.6H81.2z M81.2,19.3c0.9-2.9,2-3.9,8.1-3.9h11.3c1.7,0,2.4,0.8,1.9,2.7
			c0,0-0.7,2.2-0.7,2.2c-1,3.2-4.9,3.2-6.3,3.2c0,0-15,0-15.5,0C80.1,23.1,81.2,19.3,81.2,19.3z"/>
		<path d="M30.2,0H30c0,0-4.2,14.7-5.9,20.5c-0.6,1.9-2.3,2.7-4.1,2.7c-4.9,0-15.1,0-15.1,0L0,27.7l18.5,0c5.8,0,10.2-2.3,11.2-5.8
			c0,0,0,0,3.9-13.5L36,0h-0.2H30.2z"/>
		<path d="M59.7,11.2c0,0-3.5,12.1-3.5,12.3c-0.3,0-15.2,0-15.2,0c-0.8,0-1.6-0.1-1.9-0.6c-0.2-0.2-0.3-0.5-0.2-1
			c0,0,3.1-10.7,3.1-10.7h-5.7l-3.2,10.9c0,0-0.2,0.6-0.2,1.2c0,0.6,0.2,1.5,0.6,2.1c1,1.5,3,2.3,5.6,2.3l21.7,0l4.8-16.5H59.7z"/>
		<path d="M121.7,11.2c-5.8,0-10.3,2.3-11.2,5.8l-1.5,5.1c-0.3,1.2-0.2,2.3,0.4,3.3c1,1.5,3,2.3,5.6,2.3h14c5.8,0,9.8-2.3,10.8-5.8
			c0,0,0,0,1.5-5.1c0.3-1.2,0.4-2.3-0.3-3.3c-1-1.6-2.5-2.3-5.1-2.3H121.7z M121.4,15.4c0,0,12.8,0,14.7,0c-0.1,0.4-1.2,4.2-1.2,4.2
			c-0.8,2.9-1.8,3.9-8,3.9h-9.9c-2.5,0-2.7-1.5-2.1-3.3c0,0,0.5-1.6,0.5-1.7C116.5,15.4,120,15.4,121.4,15.4z"/>
	</g>
	<g>
		<g>
			<path d="M146.7,15.9H146l0.7-3.3h1.5c0.3,0,0.5,0,0.6,0.1c0.1,0.1,0.3,0.1,0.3,0.3c0.1,0.1,0.1,0.3,0.1,0.5
				c0,0.3-0.1,0.5-0.3,0.7c-0.2,0.2-0.4,0.3-0.7,0.3c0.1,0.1,0.5,0.8,0.8,1.4h-0.7c-0.1-0.3-0.7-1.3-0.8-1.4c-0.1,0-0.1,0-0.3,0H147
				L146.7,15.9z M147.1,14h0.4c0.4,0,0.6,0,0.7-0.1c0.1,0,0.2-0.1,0.3-0.2c0.1-0.1,0.1-0.2,0.1-0.3c0-0.1,0-0.2-0.1-0.3
				c-0.1,0-0.2-0.1-0.4-0.1h-0.8L147.1,14z"/>
		</g>
		<path fill="none" stroke="#000000" stroke-width="0.25" d="M150.2,14.4c0,1.4-1.1,2.6-2.6,2.6c-1.4,0-2.6-1.1-2.6-2.6
			c0-1.4,1.1-2.6,2.6-2.6C149,11.8,150.2,13,150.2,14.4z"/>
	</g>
</g>
</svg>
