<?xml version="1.0" encoding="utf-8"?>
<!-- Generator: $$$/GeneralStr/196=Adobe Illustrator 27.6.0, SVG Export Plug-In . SVG Version: 6.00 Build 0)  -->
<svg version="1.1" id="Ebene_1" xmlns="http://www.w3.org/2000/svg" xmlns:xlink="http://www.w3.org/1999/xlink" x="0px" y="0px"
	 viewBox="0 0 446.3 150.8" enable-background="new 0 0 446.3 150.8" xml:space="preserve">
<g>
	<g>
		<path d="M186,4.6c-17.6-2.1-29.2,8.7-39.1,19.8c-9.6,12-16.2,26.1-22.2,39.8l-7.2,1c6.9-16.5,13.4-33.2,26.4-47.5
			C153.3,7.4,163.6,1.6,177.7,0C181.2,0,184.4,1.5,186,4.6z"/>
		<path d="M197.3,9.4c4.2,17-6.4,27.6-15.1,37.1C166,61,143.5,70.6,120.6,74.4c-2.9,5.8-5.5,12.2-8.5,18.2
			c-9,17.9-20.9,37.5-39.5,46.2l-6.8-1c12.1-6.7,22.6-19.1,30.7-31c7.9-11.6,13.2-24,18.6-36.5l8.4-1.3c26.8-6,49.5-18.3,63.8-37.8
			c4.8-7.7,9-18.4,3.4-29.2C194,3.3,195.9,6.4,197.3,9.4z"/>
		<path d="M84,13.3c0.9,2.2-1.7,2.6-2.8,3.5C72,21.4,64.7,30.3,66.4,42.4c0.5,5.2,2.9,9.6,6.1,13.5c-7.1-4.8-11.9-13.5-11.3-22.1
			c0.1-11.1,10.3-18.6,19.6-21.6C81.9,12,83.2,12.4,84,13.3z"/>
		<path d="M104.5,70.3L103,74c-12.4-1.3-24.2-5.9-33.3-14.2C80.5,67,92.2,69.8,104.5,70.3z"/>
		<path d="M446.3,72.1c-0.8,4.9-5.2,7.2-8.2,9.8c-1.2,1.9-1.2,3.9-0.7,6.5c-1.2,0.3-2.4-0.3-3.4-1.1c-2.1-2.5-2.4-6.4-1.4-9
			c2-2.7,5.8-4.3,7.7-7.7C442.3,70.6,445,70,446.3,72.1z"/>
		<path d="M360.1,74l-2.8,4.3c-11.3,6-19.6,16.6-26.6,27.5c-5.5,9-11,18.5-13.3,29c-0.1,2.2-0.7,4.3,0.2,6.8
			c-1.6-0.4-3.1-1.3-4.2-2.7c-2.7-5-0.6-9.7,0.5-14c5.1-14.1,12.4-25.7,21.6-36.9c6.7-6.2,13.9-12.1,22.8-14.4
			C359.1,73.5,359.5,73.9,360.1,74z"/>
		<path d="M293,74.8c0.6,0.8,0.5,2,0.4,2.9c-7.9,2.2-12.8,8-18.3,13.1c-15.3,16.4-28.6,34.2-39,53.4c-2.5,2.9-5.2,5.5-9.1,6.1
			c-0.7-0.1-1.8-0.5-1.8-1.5c-0.3-1.7,0.4-3,1-4.2c7-4.4,8-11.8,12.4-17.6c6.3-10,15.3-21.8,22.2-30.1c4.4-4.2,13.9-13.8,25.1-20.9
			c1.8-0.9,4-1.8,6.2-2.1L293,74.8z"/>
		<path d="M302.1,77c3.6,9.6-1.9,16-5.6,22.7c-7.7,12-17.9,24-22.5,37.3c-0.3,1.5-0.3,2.9-0.4,4.6c-1,0-2.5-0.4-3.3-1.2
			c-2.8-3.2-1.4-6.7-0.7-9.5c7-17.7,22.2-32,29-48.7c1.2-3.3,0.4-5.3-0.8-8.2C299.5,74.4,301.1,75.5,302.1,77z"/>
		<path d="M372.1,81.3c0.9,3.4,0.2,6-0.3,8.7c-0.8,5.6-3.7,10.3-1.2,17.6c-1.5,0.8-3.4,0.1-4.8-0.6c-8,15.7-18.1,34.2-34.5,42
			c-3.9,2-10.5,2-15-0.5c-1.3-1-2.5-2-3.5-3.5c3.8,2.1,6.1,2.2,12.1,1.2c9.3-1.6,14.4-8,20.4-15.6c6.3-8.6,11.8-18.1,15.6-27.7
			c1.4,0.6,3.7,1.4,4.8,0.3c-0.2-1.9-1.4-3.3-1-5l0-4c0.9-6.3,4.8-12.4,1.3-20C369.2,75.7,371.4,78.1,372.1,81.3z"/>
		<path d="M194.7,76.3l-1.4,3.1L164.2,125c-2.9,5.3-5.8,10.1-5.8,16.6c-1.5,0.1-3.2-0.5-4.1-1.8c-2.2-4.7,0.1-8.4,1.3-12.2l4.2-8
			l21.7-34c3.4-5,5.4-11.4,10.6-11C193.3,74.7,194.4,75,194.7,76.3z"/>
		<path d="M230.1,75.7l0.2,1.3l-3.6,5.9l-20.3,31.8c-3.8,7.4-9.5,13.7-11.6,22.2l-0.1,4.5c-1.6-0.3-3.5-1-4.4-2.6
			c-2.3-4.3,0.7-7.5,1.1-11c9.2-17.7,21.5-34.3,32-52c1.8-0.5,3.8-1.4,5.9-1L230.1,75.7z"/>
		<path d="M270.6,75.7c1.7,2.1-0.5,3.3-1.1,4.7c-6.1,5.3-11.5,12.3-17.3,19.2c4.5-7.9,8.6-16,13.1-24.5
			C267.1,75.3,269.2,74.6,270.6,75.7z"/>
		<path d="M416.6,76.4l-0.2,2l-6.7,11.4l-13.3,12.6c4.8-8.4,9.7-18.2,14.4-27.3C412.7,75.4,415.5,74.2,416.6,76.4z"/>
		<path d="M255.5,79.5h-7.1c-0.7-0.6-0.7-1.9-0.6-2.6c1.4-2.9,6.5-1,9.8-1.6L255.5,79.5z"/>
		<path d="M401.1,79.5c-2.5,0-5.2,0.2-7.5-0.2c-0.5-1.5-0.3-2.8,0.9-3.6c2.6-0.7,5.8-0.3,8.7-0.4L401.1,79.5z"/>
		<path d="M425.3,85.4c0.5,1.2,1.4,2.3,2.3,3.2c-12,10.7-26.2,22.4-34.6,36.6c-5.9,8.3-9.4,18.8-18.3,24.6c-1.6,0.1-3.2,1.1-4.3-0.8
			c-0.3-4.1,3.4-5.8,5.2-8.8c8.8-12.2,16-25.3,27.3-35.7C402.9,104.5,415.6,92,425.3,85.4z"/>
		<path d="M439,91.9c1.6,0.9,3.4,1.1,5.3,1.1c1.2,0.4,0.7,1.9,0.5,2.6c-2.2,1.9-6.2,1.3-8.8-0.1c-1.7-1.1-3.3-2.2-4.3-3.9
			C433.9,92.6,437.1,92.9,439,91.9z"/>
		<path d="M227.1,130.6c0.5,3.3-2.4,5.2-4.4,7.4c-6.8,5.4-12.9,12.1-22.7,12.3c-4.1-0.2-6.4-1.4-8.4-4.8c3.2,0.8,6.4,1.7,11.5,0.3
			c9.2-3.4,15.2-10.1,21.6-16.8C225.6,128.9,226.7,129.8,227.1,130.6z"/>
		<path d="M305.6,130.2c1,2.3-0.2,3.7-1.3,5.2c-7.3,6.9-15.1,15.2-27.6,14.9c-3.2,0-5.4-2.3-6.5-4.7c3.1,1.7,4.5,1.1,9,0.6
			c11.1-2.1,17.1-10.3,24.5-16.9C304.7,129.1,305.1,129.6,305.6,130.2z"/>
		<path d="M184.6,136.5c-6.7,6.5-13.1,14-24.1,13.3c-2.4-0.3-4.6-2.4-5.9-4.4c3.6,0.9,5.8,2,10.6,0.2c7.8-3.5,14-9.5,19.4-15.8
			C184.3,131.9,184,134,184.6,136.5z"/>
		<path d="M142.8,138c0,1.8-1.1,2.8-2.4,3.8c-19.7,12.5-50.1,9-76,6.7c-4.9-0.7-10.5-1.6-15.4-1.5c-10.8,2.1-23.2,3.5-35.6,2
			c-4.4-1.3-9.9-1.7-13.3-6.1L0,142.4c14.6,5.4,32,2.6,45.5,0.1c20.3,2.7,41.8,5.2,62.6,3.6c11.1-2.2,23.1-2.3,31.7-8.4
			C140.7,137.2,142.6,135.5,142.8,138z"/>
	</g>
</g>
</svg>
