<?xml version="1.0" encoding="utf-8"?>
<!-- Generator: $$$/GeneralStr/196=Adobe Illustrator 27.6.0, SVG Export Plug-In . SVG Version: 6.00 Build 0)  -->
<svg version="1.1" id="Ebene_1" xmlns="http://www.w3.org/2000/svg" xmlns:xlink="http://www.w3.org/1999/xlink" x="0px" y="0px"
	 viewBox="0 0 328.3 189.8" enable-background="new 0 0 328.3 189.8" xml:space="preserve">
<g>
	<path fill="#F00E15" d="M212.6,154.7l0.5-41.7H229c0,0-1,69.5-1,72.8c0,0.6,0,3.1,0,3.1s-8.5-0.2-12.1-0.2
		c-1.3,0-28.3-44.3-28.5-44.6c0.2,14.4,0.3,27.4,0.5,41.7c-2.2,0.4-4.2-0.1-6.2-0.1c-2.1,0-3-0.1-5.1-0.2c-2-0.1-2.8-0.2-5-0.3
		c0.1-8.6-0.4-65.1-0.6-73.6c0.3,0,0.7-0.2,1.1-0.1c5.3,0.2,14.7,0.6,14.7,0.6L212.6,154.7L212.6,154.7z"/>
	<path fill="#F00E15" d="M182.6,56.6c0.9,14.5,0.8,26.4,0.3,40.8c-6,0-10.7-0.9-16.7-0.9c-0.1-0.9-0.5-38-0.4-44c0-7.8,0-13.2,0-21
		c0-1.4,0.2-2.9,0.3-4.4c0.6-0.1,1.1-0.2,1.5-0.1c4.4,0.1,7.6,0.2,12,0.3c1.2,0,33.8,41.2,34.2,41.4c0.6-13.5-1-27.9,0.3-41.3
		c5.1,0.1,10.2,0.3,15.4,0.4c0.1,0.8,0.1,1.4,0.1,2c0.3,12.9,0.2,56.2,0.4,64.9c0,1.1,0.1,2.7,0.1,2.7l-13.6,0.4
		C216.5,97.7,182.8,56.8,182.6,56.6L182.6,56.6z"/>
	<path fill="#F00E15" d="M73.5,114c0,0,5.6,48.3,7.6,72.5c-6,0-10.6,0-16.7,0c-1.5-15.7-4.6-46.1-4.6-46.1l-13.1,14.1l-11.9-15
		c0,0-3.5,36.2-4.6,42.5c-6.6-0.6-10.5-1.1-17-1.7c2.5-24.8,5.9-47.2,10.1-70.9c1,0,1.7,0,2.5,0c3.7,0.1,11,0.3,11,0.3l11.1,21.4
		l14.8-18L73.5,114L73.5,114z"/>
	<path fill="#F00E15" d="M116.5,25.1c3.5,0,6.7,0,10.3,0c9.2,23.2,17.4,47.7,26.8,71.2c-5.4,2-9.5,2.8-15,4.8
		c-1.9-5.5-3.7-10.9-5.6-16.6c-7.2,0.5-16.3,0.5-23.5,1.1c-1.7,5.1-5.1,13.6-5.1,13.6l-14.3-4.7C90.1,94.5,107.6,48.8,116.5,25.1
		L116.5,25.1z M122.3,52.6c-0.1,0-0.3,0-0.4,0c-2,6.3-5.1,12.7-7.1,19.2c4.3-0.3,9.5-0.5,13.8-0.7C126.4,64.8,124.3,58.7,122.3,52.6
		L122.3,52.6z"/>
	<path fill="#F00E15" d="M159.7,179.1c-6,3.7-8.6,4.5-14.3,6.8c-2.1-5.1-4.1-10.2-6.1-15.2c-9.3,0-16.9-0.2-26.3-0.2
		c-2.3,3.9-5.3,8.2-7.1,12.2c-4.5-2.6-8.9-3.8-13.4-6.4c-0.2-0.1,0.9-2.3,1.1-2.7c10.5-19.8,30.3-58.2,30.3-58.2l8,0
		c0,0,5.5,11.4,8.2,17.7C146,146.7,159,177.3,159.7,179.1L159.7,179.1z M134.6,158.2l-7.4-16.7l-8.9,16.4L134.6,158.2L134.6,158.2z"
		/>
	<path fill="#F00E15" d="M244,109.1c0.4-0.1,18.4-0.3,20.4-0.4c4.1-0.2,25.2-0.5,26.4-0.5c0.1,7.1,0.4,9.1,0.1,16.1
		c-4.2,0-9.7,0-14.1,0c-0.3,20.6,0,41.1-0.1,61.8c-6.4,0.9-10.4,0.2-17,0.4c-0.1-0.8-0.2-1.5-0.2-2.2c0-4.4,0-8.8,0-13.2
		c0.1-14.9,0.3-29.8,0.4-44.7c0-0.6,0-1.1,0-2c-5.1,0-11.2,0-16.2,0C243.7,118.2,243.9,115.6,244,109.1L244,109.1z"/>
	<path fill="#F00E15" d="M262,89.7c-0.3-18.3-0.3-55-0.3-55l-17.5-1.2l0.5-15.7l48,1c0,0,0.3,10.4,0.5,16.5c-4.1,0.2-15-0.2-15-0.2
		l-0.1,2.1c0,0,0.4,39.5,0.1,47.2c-0.1,1.6-0.1,3.2-0.2,4.9C272.3,89.4,267.9,89.5,262,89.7L262,89.7z"/>
	<path fill="#F00E15" d="M304.6,189.7c-0.1-0.5-0.2-59.6-0.2-59.6l17.5,0c0,0-0.2,51.8-0.1,58.2c0,0.5,0,1,0,1.5
		C315.7,190.1,310.8,189.3,304.6,189.7L304.6,189.7z"/>
	<path fill="#F00E15" d="M313.3,26.9c5.4,0.3,9.5,0.6,14.8,1c0.1,0.6,0.1,1.2,0.2,1.7c0.1,4.3-1,36.1-1.1,39.9c-0.2,8-0.3,16-0.4,24
		c0,0.3-0.1,0.6-0.1,1.1c-5.4,1-9.6,0.5-15.2,0.3c-0.1-0.5-0.2-1-0.2-1.5c0-3.1,0-6.2,0-9.2c0-4.5,0.7-34.5,1.3-45
		c0.2-3.7,0.4-7.5,0.7-11.2C313.2,27.6,313.3,27.3,313.3,26.9L313.3,26.9z"/>
	<path fill="#F00E15" d="M313.5,104.8c1.6,0.4,3.2,0.5,4.7,1.1c5.7,2.2,7.4,8.8,3.7,13.6c-4,5.2-12.1,5.5-16.2,0.9
		c-1.1-1.2-1.9-2.5-2.1-4.1c-0.4-3.5,0.6-6.6,3.1-9.1C308.5,105.3,310.9,105,313.5,104.8L313.5,104.8z"/>
	<path fill="#F00E15" d="M22.6,52.8l-6.4,40.1L0,90.6l11.3-62.5l12.4,0.1l18,21.2L61,31.7L71.8,32c0,0,6.1,62.7,5.7,64.2
		c-5.8,0-16.2,0-16.2,0L58.2,57L40.6,71.3L22.6,52.8L22.6,52.8z"/>
	<path fill="#F00E15" d="M17.5,19.9c-2.2-0.1-5.1-1.5-6.6-5c-0.1-0.3-0.3-0.5-0.4-0.8C7.3,8.5,11.6,0.5,18.1,0
		c5.5-0.4,10.5,4.6,10,10.1c-0.2,2.3-1,4.4-2.3,6.2C24.1,18.7,21.9,20,17.5,19.9L17.5,19.9z"/>
	<path fill="#F00E15" d="M68.6,24.6c-4.8,0-8.6-3.7-8.6-8.6c0-5.2,3.7-8.7,9.1-8.7c4.5,0,8.2,3.7,8.2,8.3
		C77.3,20.7,73.6,24.5,68.6,24.6L68.6,24.6z"/>
</g>
</svg>
