<svg xmlns="http://www.w3.org/2000/svg" xml:space="preserve" viewBox="0 0 201.8 17.8"><path fill="#706F6F" d="M10.4 17.5 3.7 2.8v11.7c0 1.1.1 1.8.4 2 .2.4.7.5 1.4.5h.6v.5H0V17h.6c.8 0 1.3-.2 1.6-.7.2-.3.3-.9.3-1.9V3c0-.8-.1-1.3-.3-1.7-.1-.2-.3-.4-.6-.6C1.3.6.7.5 0 .5V0h5l6.3 13.7L17.6 0h5v.5H22c-.8 0-1.3.2-1.6.7-.2.3-.3.9-.3 1.9v11.4c0 1.1.1 1.8.4 2 .3.4.8.5 1.5.5h.6v.5h-7.5V17h.6c.8 0 1.3-.2 1.6-.7.2-.3.3-.9.3-1.9V2.8l-6.7 14.7h-.5zM33.5 12.5h-5.8l-1 2.4c-.2.6-.4 1-.4 1.3 0 .2.1.4.3.6.2.2.7.3 1.4.3v.4h-4.7v-.4c.6-.1 1-.3 1.2-.4.4-.4.8-1.1 1.2-2.2L31 2.2h.4l5.2 12.5c.4 1 .8 1.7 1.1 2 .3.3.8.5 1.4.5v.4h-5.9v-.4c.6 0 1-.1 1.2-.3.2-.2.3-.4.3-.6 0-.3-.1-.8-.4-1.5l-.8-2.3zm-.4-.8-2.5-6.1-2.6 6.1h5.1zM54.8 17.5h-4l-5.1-7h-1.5v4.4c0 .9.1 1.5.3 1.8.3.3.7.5 1.2.5h.6v.4h-6.4v-.4h.6c.6 0 1.1-.2 1.3-.6.2-.2.2-.8.2-1.6V5.2c0-.9-.1-1.5-.3-1.8-.3-.3-.7-.5-1.3-.5h-.6v-.4h5.5c1.6 0 2.8.1 3.5.3.8.2 1.4.7 1.9 1.3.5.6.8 1.4.8 2.2 0 .9-.3 1.7-.9 2.4-.6.7-1.5 1.2-2.8 1.4l3.1 4.3c.7 1 1.3 1.7 1.8 2 .5.3 1.2.5 2 .6v.5zM44.1 9.8h.7c1.4 0 2.5-.3 3.2-.9.7-.6 1-1.4 1-2.4 0-.9-.3-1.7-.9-2.3-.6-.6-1.3-.9-2.3-.9-.4 0-1 .1-1.7.2v6.3zM66.3 2.5l.2 3.5h-.4c-.1-.6-.2-1-.4-1.3-.2-.4-.5-.7-.9-.9-.4-.2-.9-.3-1.5-.3h-2.1V15c0 .9.1 1.5.3 1.7.3.3.7.5 1.3.5h.5v.4H57v-.4h.5c.6 0 1.1-.2 1.4-.6.2-.2.2-.8.2-1.6V3.5h-1.8c-.7 0-1.2.1-1.5.2-.4.1-.7.4-1 .8-.3.4-.4.9-.5 1.6h-.4l.2-3.5h12.2zM74 17.1v.4h-6.4v-.4h.5c.6 0 1.1-.2 1.3-.5.2-.2.3-.8.3-1.7V5.2c0-.8 0-1.3-.1-1.5-.1-.2-.2-.3-.5-.5s-.7-.3-1-.3h-.5v-.4H74v.4h-.5c-.6 0-1 .2-1.3.5-.2.2-.3.8-.3 1.7v9.7c0 .8 0 1.3.1 1.5.1.2.2.3.5.5s.6.3 1 .3h.5zM74.3 2.5h4.1l9.2 11.2V5.1c0-.9-.1-1.5-.3-1.7-.3-.3-.7-.5-1.3-.5h-.5v-.4h5.2v.4h-.5c-.6 0-1.1.2-1.4.6-.2.2-.2.8-.2 1.6v12.7h-.4L78.3 5.7V15c0 .9.1 1.5.3 1.7.3.3.7.5 1.3.5h.5v.4h-5.2v-.4h.5c.6 0 1.1-.2 1.4-.6.2-.2.2-.8.2-1.6V4.5c-.4-.5-.8-.8-1-1-.2-.2-.6-.3-1-.5-.2-.1-.5-.1-1-.1v-.4z"/><path fill="#B3C542" d="M103.5 7.9h4.9v.4c-.7.1-1.2.2-1.5.4-.3.2-.9.9-1.6 2.1-.7 1.2-1.6 2.2-2.5 3.2.7.8 1.3 1.3 1.9 1.6.5.3 1.1.5 1.7.5.5 0 1-.1 1.4-.4.4-.3.6-.7.8-1.2l.4.3c-.3 1-.8 1.8-1.4 2.3-.6.5-1.4.7-2.2.7-.6 0-1.3-.2-2-.5s-1.4-.9-2.2-1.7c-1 .8-1.8 1.4-2.6 1.7-.8.3-1.6.5-2.5.5-1.3 0-2.3-.3-3.1-1-.8-.6-1.1-1.4-1.1-2.3 0-.9.3-1.8 1-2.7.7-.9 2-1.8 3.9-2.7-.4-.8-.6-1.4-.8-1.9-.1-.5-.2-1-.2-1.4 0-1.3.5-2.2 1.5-2.9.8-.5 1.7-.8 2.7-.8.9 0 1.7.3 2.3.8.6.5.9 1.2.9 1.9 0 .8-.3 1.5-.9 2-.6.6-1.6 1.2-3.1 1.9 1 1.7 2 3.2 3.1 4.6 1.5-1.5 2.3-2.8 2.3-3.9 0-.3-.1-.6-.4-.9-.2-.2-.4-.3-.7-.3v-.3zm-2.9 7.1c-1-1.3-1.7-2.3-2.1-2.9-.4-.6-.8-1.4-1.3-2.3-1 .5-1.7 1.1-2.2 1.7-.5.6-.7 1.3-.7 2 0 .8.3 1.5.8 2.1.5.6 1.3.9 2.2.9.5 0 1-.1 1.4-.3.5-.2 1.1-.6 1.9-1.2zm-1.7-6.8c1-.4 1.7-.9 2.2-1.5.5-.6.7-1.2.7-1.9 0-.5-.2-1-.5-1.3-.3-.3-.8-.5-1.3-.5-.7 0-1.2.2-1.5.7-.3.4-.5.9-.5 1.3s.1.8.2 1.2c0 .4.3 1.1.7 2z"/><path fill="#706F6F" d="m120.7 17.5-6.8-14.7v11.7c0 1.1.1 1.8.4 2 .3.4.8.5 1.5.5h.6v.5h-6.2V17h.6c.8 0 1.3-.2 1.6-.7.2-.3.3-.9.3-1.9V3c0-.8-.1-1.3-.3-1.7-.1-.2-.3-.5-.7-.6-.3-.2-.9-.3-1.6-.3V0h5.1l6.4 13.6L128 0h5v.5h-.6c-.8 0-1.3.2-1.6.7-.2.3-.3.9-.3 1.9v11.4c0 1.1.1 1.8.4 2 .3.4.8.5 1.5.5h.6v.5h-7.5V17h.6c.8 0 1.3-.2 1.6-.7.2-.3.3-.9.3-1.9V2.8l-6.8 14.7h-.5zM144 12.5h-5.9l-1 2.4c-.3.6-.4 1-.4 1.3 0 .2.1.4.3.6.2.2.7.3 1.4.3v.4h-4.8v-.4c.6-.1 1-.3 1.2-.4.4-.4.8-1.1 1.3-2.2l5.4-12.3h.4l5.3 12.5c.4 1 .8 1.7 1.2 2 .3.3.8.5 1.4.5v.4h-6v-.4c.6 0 1-.1 1.2-.3.2-.2.3-.4.3-.6 0-.3-.1-.8-.4-1.5l-.9-2.3zm-.3-.8-2.6-6.1-2.6 6.1h5.2zM165.5 17.5h-4.1l-5.2-7h-1.5v4.4c0 .9.1 1.5.3 1.8.3.3.7.5 1.3.5h.6v.4h-6.5v-.4h.6c.6 0 1.1-.2 1.4-.6.2-.2.2-.8.2-1.6V5.2c0-.9-.1-1.5-.3-1.8-.3-.3-.7-.5-1.3-.5h-.6v-.4h5.5c1.6 0 2.8.1 3.6.3.8.2 1.4.7 1.9 1.3.5.6.8 1.4.8 2.2 0 .9-.3 1.7-.9 2.4-.6.7-1.5 1.2-2.8 1.4l3.1 4.3c.7 1 1.3 1.7 1.8 2 .5.3 1.2.5 2 .6v.5zm-10.7-7.7h.7c1.4 0 2.5-.3 3.3-.9.7-.6 1.1-1.4 1.1-2.4 0-.9-.3-1.7-.9-2.3-.6-.6-1.4-.9-2.3-.9-.4 0-1 .1-1.8.2v6.3zM177.2 2.5l.2 3.5h-.4c-.1-.6-.2-1.1-.3-1.3-.2-.4-.5-.7-.9-.9-.4-.2-.9-.3-1.5-.3H172V15c0 .9.1 1.5.3 1.7.3.3.7.5 1.3.5h.5v.4h-6.4v-.4h.5c.6 0 1.1-.2 1.4-.6.2-.2.2-.8.2-1.6V3.5H168c-.7 0-1.2.1-1.5.2-.4.1-.7.4-1 .8-.3.4-.4.9-.5 1.6h-.4l.2-3.5h12.4zM185 17.1v.4h-6.5v-.4h.5c.6 0 1.1-.2 1.4-.5.2-.2.3-.8.3-1.7V5.2c0-.8 0-1.3-.1-1.5-.1-.2-.2-.3-.5-.5s-.7-.3-1-.3h-.5v-.4h6.5v.4h-.5c-.6 0-1.1.2-1.3.5-.2.2-.3.8-.3 1.7v9.7c0 .8 0 1.3.1 1.5.1.2.2.3.5.5s.7.3 1 .3h.4zM185.3 2.5h4.1l9.3 11.3V5.1c0-.9-.1-1.5-.3-1.7-.3-.3-.7-.5-1.3-.5h-.5v-.4h5.3v.4h-.5c-.6 0-1.1.2-1.4.6-.2.2-.2.8-.2 1.6v12.7h-.4l-10-12.1V15c0 .9.1 1.5.3 1.7.3.3.7.5 1.3.5h.5v.4h-5.3v-.4h.5c.7 0 1.1-.2 1.4-.6.2-.2.2-.8.2-1.6V4.5c-.4-.5-.8-.8-1-1-.2-.2-.6-.3-1-.5-.2-.1-.5-.1-1-.1v-.4z"/></svg>
