<?xml version="1.0" encoding="UTF-8"?>
<!-- Generator: Adobe Illustrator 25.2.0, SVG Export Plug-In . SVG Version: 6.00 Build 0) -->
<svg xmlns="http://www.w3.org/2000/svg" xmlns:xlink="http://www.w3.org/1999/xlink" version="1.1" id="Ebene_1" x="0px" y="0px" viewBox="0 0 779.5 91.7" style="enable-background:new 0 0 779.5 91.7;" xml:space="preserve"> <g> <path d="M775.4,22.9l4.1-21.6h-63.9l-0.8,3.4c8.4,1,10.9,1.3,9.3,9L710.3,78c-1.5,7.2-3.4,7.9-13.1,9l-0.8,3.4h39l0.9-3.7 c-12.3-1-15.4-2.7-13.7-10.4l6.1-28.6h17.5c5.5,0,6.5,4.3,6.1,11.9h3.4l6-28.1h-3.4c-2.9,7.6-5.7,11.9-11.2,11.9h-17.5l8.1-38.1 h20.3c8.6,0,13.1,3.7,14.7,17.4H775.4L775.4,22.9z M680.3,90.5l9.3-24.8h-3.2c-9.7,13.2-15.4,20.6-26.2,20.6h-7.5 c-8.8,0-12.2-1.8-10.7-8.6l13.6-63.9c1.5-7.2,3.4-7.9,13.1-9l0.8-3.4h-34.3l-0.8,3.4c8.4,1,10.9,1.3,9.3,9L630,78 c-1.5,7.2-3.4,7.9-13.1,9l-0.8,3.4H680.3L680.3,90.5z M611.6,34.6c0-18.7-10.7-34.6-33-34.6c-29.5,0-48.7,31-48.7,57.2 c0,18.7,10.7,34.6,33,34.6C592.4,91.7,611.6,60.7,611.6,34.6L611.6,34.6L611.6,34.6z M598.8,34.6c0,22.7-13.1,53-35.8,53 c-14.4,0-20.2-13.3-20.2-30.4c0-22.7,13.1-53,35.8-53C592.9,4.2,598.8,17.5,598.8,34.6L598.8,34.6L598.8,34.6z M533.2,4.7l0.8-3.4 H509l-0.8,3.4c8.6,0.3,10.4,1.9,10.4,4.6c0,1.9-1.4,4.2-2.4,6.1l-31.6,57.6L478,15.2c-0.1-1-0.3-2.7-0.3-4.2 c0-4.3,2.8-5.8,12.8-6.4l0.8-3.4H461l-0.8,3.4c3.3,0.5,6.1,1.3,6.5,4.7l2.4,21.2l-24.3,42.8l-7.9-58.2c-0.1-1-0.3-2.7-0.3-4.2 c0-4.3,2.8-5.8,12.8-6.4l0.8-3.4h-31.5L418,4.7c3.3,0.5,6.1,1.3,6.5,4.7l11.8,82.2h2.8l30.9-54l6.4,54h2.7l45.8-82.2 C526.8,5.6,529.7,5.2,533.2,4.7L533.2,4.7L533.2,4.7z M378.6,4.7l0.8-3.4H354l-0.8,3.4c7.8,0.3,10.3,1.3,10.3,4.1 c0,2-2.3,5-3.6,6.6l-26.7,34.1L321,15.2c-0.6-2.2-1.1-3.4-1.1-5.5c0-3.6,2.4-4.8,12.5-5.1l0.8-3.4h-31.4L301,4.7 c3.4,0.5,5.3,1.4,6.5,4.7l15.8,45.2l-4.8,23.1c-1.5,7.2-3.8,8.1-14.4,9.3l-0.8,3.4h36.2l0.8-3.4c-9.3-0.9-12.2-1.5-10.5-9.3l5-23.3 l35.5-45.1C372.6,6.2,375.1,5.2,378.6,4.7L378.6,4.7L378.6,4.7z M287.9,37.1c0-22-15-35.8-40-35.8h-32.2l-0.8,3.4 c8.4,1,10.9,1.3,9.3,9L210.5,78c-1.5,7.2-3.4,7.9-13.1,9l-0.8,3.4h36C263.6,90.5,287.9,69.9,287.9,37.1L287.9,37.1L287.9,37.1z M275,37.1c0,30-17.8,49.2-41.1,49.2h-1.9c-7.9,0-11.1-1.5-9.4-9l15.2-71.8h8.3C266.1,5.5,275,17.5,275,37.1L275,37.1L275,37.1z M202.5,4.7l0.8-3.4h-30.1l-0.8,3.4c9.9,0.5,13.3,1.9,11.9,9l-12.1,58.2L134.3,1.3h-19.2l-0.8,3.4c6.5,0.1,7.9,2,11.1,7.8l-14,65.6 c-1.5,7.2-3.4,7.9-13.1,9l-0.8,3.4h30.1l0.8-3.4c-9.9-0.5-13.3-1.9-11.9-9l12.8-60.9L169.8,91h3.2l16.4-77.3 C190.9,6.5,192.8,5.8,202.5,4.7L202.5,4.7L202.5,4.7z M87.2,90.5l0.6-3.4c-3.4-0.4-5.8-1.3-6.5-4.7L65.1,0.1H52.9l1.8,8.1L9.2,82.3 c-2,3.4-4.8,4.3-8.5,4.7L0,90.5h25.8l0.6-3.4c-7.1-0.3-10.5-1.3-10.5-4.3c0-1.5,0.9-3.6,2.5-6.4l10.4-17.2h36.1l3.4,17.3 c0.3,1.1,0.4,2.3,0.4,3.2c0,6.7-5.8,7.1-12.8,7.4l-0.6,3.4H87.2L87.2,90.5z M64.2,55.1H31.3l25-41L64.2,55.1L64.2,55.1z"/> </g> </svg>