<svg xmlns="http://www.w3.org/2000/svg" xml:space="preserve" viewBox="0 0 704.9 366.3"><path d="M342.3 203.1c-11.4 0-21 45.5-30.3 45-7.9-.4-1.3-31.4-13.4-31.4-7.4 0-9.6 12.4-13 23-.2.6-5.7 22.1-14 22.1-5.3 0-9.9-4.2-9.9-16.7 0-5.9-.3-14.6-7.3-16-12.1-2.5-9.4 9.9-20 7.9-28.8-5.4-50.5 53.6-33 61.5 21 9.5 36.3-27.7 42.5-26.7 4.8.8 1.7 16.8 16.7 15.8 12.3-.8 21.9-26.2 26.7-25.9 4.2.3.5 15.2 11.1 15.8 12.4.7 17.5-19.9 23.1-20 1.4 0 2 1 1.9 6.1-.2 6.9-1.1 94-1.2 96.9-.3 5.4 2.3 5.8 3.5 5.8.8 0 12.7-.2 15-.3 2.3-.1 2.7-2.2 2.7-3.5 0-.5 1.6-126.9 1.8-154.2.1-5.2-2-5.2-2.9-5.2zm-102 52.1c-2.9 10.3-14.5 27.2-20 27.8-1.6.2-4-.7-3.9-4.4.2-8.7 13.8-28.4 19.4-29.9 3.8-1.2 5.5 2.6 4.5 6.5zM700.4 146.9c-22.3 14.1-18-38.1-31.6-38.1-14.8 0-19.2 30.9-24.4 31.5-6.5.6 2.4-22.7-10.4-22.2-14.1.6-22 51.8-32.3 47.8-10.5-4.1-3-31.1-14.8-33.1-6.1-1-7.4 3.9-11 6.2-5.4 3.5-15.2-2.6-30.6 15.3-17.4 20.2-22.7 52.9-9.4 55.1 17.8 3 34.1-27.4 38.2-31.4 5.7-5.5 2.5 15.8 18 16.1 16.4.3 21.3-26.7 26-26.4 4.1.2-.6 14.2 7.1 15.1 16.9 2.2 26.1-42.1 33.1-41.1 6.9 1 4.3 27.3 21 29 14.2 1.4 23.9-18 25.2-20.8 1.3-2.7-1-4.9-4.1-3zm-127.2 14c-3.2 9.2-12.6 23.9-18.3 25-2 .4-4.4-1.6-4.2-5 .4-7.9 13.6-24.7 19-25.9 3.7-.9 4.9 2.1 3.5 5.9z"/><path d="M248.4 330.5c4 1.9 9.5 5.5 6.7 12-2 4.6-3.9 8.2-4.4 8.9-2.5 4.2-8.4 6.7-15.5 3.4-11.4-5.4-72.5-34.6-74.5-35.5-2.2-1-5.6-.3-5.7 5.7v16.3c0 2.2.3 7.6-4.2 10.8-4.8 3.4-12.6 8-14 8.7-2 1-7 4.9-7.1-3.2-.1-16.2-.1-46.3-.1-48 0-1.7.4-4.9-4.5-7.1-4.3-2-32-15-33.7-15.8-2.2-1-3.9-5 .6-7.7 5.4-3.3 32.3-19 34.1-20.3 3.1-2.2 3.1-4.4 3.2-10.8 0-7.3-.4-102.2-.4-103.7.1-2.5-.2-4.5 4-7.2 4.8-3.1 9.9-6.4 11.6-7.5 2.6-1.7 10.7-5.1 10.6 4.1-.1 6.1 0 92.9 0 95.2 0 3.2 1.5 8 6.6 4.2 61.2-45.2 69.4-83.5 57.2-108.8C194 72.5 64.5 155 8.5 201.2c-8.8 7.3-8.6 4-8.6.5 0-4.1.2-19.5.5-22.3.6-4.2 1.6-17.4 13.7-26.2 11.7-8.5 172.2-111.9 218.9-45.5 22.8 32.4 8.9 83.6-72 143-4.9 3.6-5.8 4.8-5.8 11.4s-.1 16.5 0 18.3c.1 1.9.3 5.8 4.2 7.8s85.7 40.7 89 42.3zM402.2 198c-5.9-6.7-17.9-6.6-27-.9-12.1 7.5-15.3 19.1-9.4 25.8 5.9 6.7 20.2 5.3 28.9-.5 10-6.7 13.5-17.7 7.5-24.4zM492.8 20.3c28.5 28-20 81.1-31.7 94.8-5.3 6.1-10.1 15.3-1.9 24 8.4 8.9 17.1 17.1 24.3 23.8 8.9 8.2 6.2 23.6.6 31.9-3.7 5.5-12.1 15.3-21.7 27.6S444 246 443 247.2c-6.7 8.6-5.1 18.1-1.5 23.7 10.4 16.1 11.3 15.8 17.9 4.4 11-19.1 25.5-36.8 36.5-49.4 9.9-11.3 15.3-19.4 16.7-21.4 10-14.2 10.9-29.5.9-38.2-13.3-11.6-28.8-21.8-41.5-31.5-7.4-5.6-2.3-12.5 5.6-18.4 28-21 67.2-56.1 49.2-98.4-17.4-40.9-99.1-9.3-102.4 75.3-1.2 30.2 2.8 113.7.6 134.6-1.3 12.2 3.3 10.8 7.8 9 4.1-1.7 19.7-9.3 18.9-29.2-.8-19.8-2.6-106.2-3.2-115.1-3-46.9 25.9-90.5 44.3-72.3z"/></svg>
