<svg xmlns="http://www.w3.org/2000/svg" xml:space="preserve" viewBox="0 0 383 75.2"><title>Optik Dumm</title><path d="M104.9 31.9h-2.2c-.3 0-.5.1-.6.4-.9 2.3-2 4.4-2.9 6.7-.9 2-1.8 4-2.6 5.9-.6 1.2-1.1 2.5-1.7 3.7-.4.9-.7 1.7-.7 2.7 0 .3.1.6.2.8.1.3.4.6.7.7.9.4 1.8.4 2.7.1 1.1-.4 2.2-.9 3.1-1.7 1.7-1.3 3.3-2.6 4.8-4.1 1.3-1.3 2.5-2.5 3.8-3.7.7-.7 1.2-1.5 1.6-2.3 1.6-3.7 3.4-7.4 4.9-11.1.2-.4.3-.8.4-1.2.1-.4.4-.6.8-.6h8.3c.4 0 .8 0 1.2.2.3.1.4.2.3.6-1.1 2.6-2.1 5.2-3.3 7.7-.8 1.7-1.7 3.2-2.4 4.9-1.2 2.8-2.6 5.5-3.6 8.4-.1.4-.3.8-.3 1.3-.1.9.2 1.5 1.1 1.8.9.4 1.8.2 2.7.1 1.5-.3 2.6-1.1 3.8-2 .5-.4 1-.9 1.6-1.3.1-.1.3-.2.4-.4 1.5-1.5 2.7-3.2 3.4-5.2.7-1.7 1.5-3.4 2.2-5 .8-1.7 1.5-3.3 2.3-5 1.1-2.4 2.2-4.8 3.3-7.3 1.3-2.8 2.5-5.6 3.7-8.4 1.2-2.7 2.4-5.3 3.6-8 1.4-3 2.7-6.1 4-9.1.1-.3.3-.5.7-.4h9.6c.9 0 1 .1.6.9-2.4 5-4.5 10-6.8 15-1.3 3-2.6 6-3.9 8.9-.5 1.1-1 2.1-1.5 3.2-.1.2-.3.4-.1.6.2.2.4 0 .6-.1l1.8-1.2c2.4-1.4 5-2.3 7.8-2.5 1.3-.1 2.6-.1 4 .2 1.8.4 2.4 1.6 2.1 3.4-.2 1.2-.8 2.2-1.5 3.1-1.7 2.2-4 3.7-6.6 4.7-.3.1-.7.2-1 .3-.1 0-.3.1-.4.2-.2.1-.2.3 0 .4.2.1.4.1.5.1.6 0 1.1.2 1.6.5.6.3 1 .9 1.2 1.6.3 1.2.3 2.3 0 3.5-.4 1.4-.8 2.8-1.4 4.2-.3.7-.6 1.5-.8 2.2-.1.3-.2.6-.2 1 .1 1.2.8 1.7 1.9 1.8 1.7.1 3.3-.3 4.8-1.3 1.3-.9 2.6-1.7 3.9-2.7 1.1-.9 2-1.9 3-2.8.3-.2.5-.5.8-.7.3-.3.5-.2.7.1.3.4.5.7.8 1.1.2.4.2.8-.1 1.1l-1.5 1.8c-2.2 2.3-4.5 4.4-7.3 5.9-2.7 1.5-5.5 2.8-8.5 3.5-1.2.3-2.4.7-3.6.8-1.3.1-2.5.1-3.8-.2-.8-.2-1.6-.6-2.2-1.1-1-.9-1.3-2-1.1-3.2.2-1.6.8-3.1 1.5-4.6.7-1.7 1.6-3.3 2.2-5 .2-.4.3-.8.4-1.3.2-1.1-.4-2.1-1.5-2.5-1.4-.5-3.3.1-4.3 1.3-.3.4-.6.8-.8 1.2-.7 1.4-1.3 2.8-1.9 4.2-.7 1.7-1.5 3.4-2.3 5.1-.8 1.7-1.5 3.4-2.2 5.1-.1.2-.1.3-.2.5-.3.6-.7.9-1.4.9-2.6-.2-5.2-.1-7.8-.1-.5 0-1.1.1-1.6.1-.6 0-.8-.2-.5-.7.5-1.2 1.1-2.4 1.7-3.6 0-.1.1-.1.1-.2.1-.2.3-.4.1-.6-.2-.2-.3.1-.5.2-.6.4-1.2.8-1.7 1.2-1.4 1.1-3 1.9-4.7 2.5-1 .4-2 .8-3 .9-2 .3-4 .5-6.1.1-1.3-.3-2.5-.8-3.3-2-.6-.8-.8-1.7-.6-2.7.2-1.2.6-2.4 1.1-3.5.1-.2.2-.4.2-.6 0-.1.1-.3-.1-.4-.2-.1-.3 0-.4.1-.2.1-.3.3-.4.4l-2.7 2.7c-2 1.8-4 3.5-6.5 4.6-2.6 1.1-5.3 1.7-8.1 1.5-1.7-.1-3.3-.7-4.7-1.9-1-.8-1.6-2-1.6-3.3v-1c0-.2 0-.3-.1-.4-.2-.1-.3 0-.4.1-1.4 1-2.9 1.6-4.6 1.8-1.4.2-2.9.2-4.2-.6-.4-.2-.8-.5-1.1-.8-.2-.1-.3-.2-.5-.4-.2-.1-.3-.1-.4.1-1.4 2-3.5 3.2-5.5 4.5-1 .7-2.1 1.1-3.3 1.5-2.3.7-4.5.7-6.7-.3-1.2-.5-1-.6-1.5.6l-1.5 3.3c-1.6 3.7-3.3 7.3-4.9 11 0 .1 0 .1-.1.2-.5 1-.7 1.2-1.8 1.1h-8c-.3 0-.6.1-.9.1-.6 0-.7-.1-.5-.6.1-.2.2-.5.3-.7 1.8-3.7 3.4-7.5 5.1-11.2 1.2-2.6 2.3-5.2 3.5-7.8.3-.7.6-1.3.9-2 .1-.1.1-.3 0-.4-.1-.1-.3-.1-.5 0s-.4.2-.6.4c-.4.3-.9.6-1.3.9-1.8 1.1-3.7 1.7-5.8 1.6-1.3 0-2.5-.4-3.5-1.2-.5-.4-.4-.3-.9 0-2 1.6-4.1 3-6.6 3.8-2.2.7-4.3 1.3-6.6 1.6-1 .1-2 .2-3 .2-2.1 0-4.2.1-6.2 0-2.3-.1-4.6-.5-6.8-1.2-1.4-.5-2.6-1.2-3.4-2.4-.3-1.3-.6-2-.6-2.8-.1-1.7.4-3.3 1.1-4.8 1.5-3.1 2.8-6.2 4.2-9.4 1.5-3.4 3.1-6.7 4.6-10.1 1.1-2.4 2.1-4.7 3.2-7.1 1-2.3 2.1-4.6 3.1-6.9.5-1.1 1-2.3 1.5-3.4 1.6-3.6 4.1-6.3 7.4-8.2 2.6-1.5 5.5-2.5 8.5-2.9 1-.1 2-.3 3-.4h1.5c1 .2 1.9.2 2.8.3 3.1.2 6.1.7 9 1.7 1.3.5 2.6 1.2 3.7 2.2 1 1 1.3 2.2 1.1 3.6-.1.9-.4 1.8-.8 2.6-.9 2.2-1.9 4.5-2.9 6.7-.9 2-1.7 4-2.6 6-1.2 2.9-2.5 5.7-3.8 8.5-1.4 3.1-2.8 6.2-4.2 9.4-.8 1.7-1.6 3.4-2.3 5.1-.1.3-.2.7-.3 1.1-.3 1.2.8 2.3 1.9 2.3 1.9 0 3.5-.6 5.1-1.7 1.6-1.2 2.9-2.7 4.2-4.2 1.3-1.5 2.2-3.2 3-5 1.2-2.7 2.4-5.3 3.6-8 .4-.8.7-1.6 1-2.4.3-.7.4-.8 1.1-.8h5.5c.2 0 .3 0 .5.1.5.1.6.2.4.7-.2.5-.5 1-.7 1.5-.1.2-.3.4-.1.6.2.2.4 0 .6-.1.2-.1.4-.2.7-.3 2.2-1.2 4.6-2 7.2-2.2 1.4-.1 2.9 0 4.3.1.9.1 1.8.5 2.6.9 1 .6 1.6 1.5 1.8 2.6.2 1.4-.1 2.7-.4 4-.7 2.4-1.5 4.7-2.5 7-.6 1.3-1.1 2.6-1.5 4-.1.4-.2.8-.2 1.3 0 .6.3 1.1.8 1.5.7.5 1.6.7 2.4.5 1.5-.2 2.8-.8 4-1.8.9-.8 1.6-1.7 2.3-2.6.5-.6.8-1.3 1-2 1.3-3.2 2.7-6.3 4-9.4.2-.4.4-.9.6-1.3.4-.8.2-1-.7-1.1h-2.9c-.4 0-.7 0-1.1-.1-.3-.1-.4-.2-.3-.5.1-.3.2-.5.4-.8.3-.5.6-1 .7-1.6.2-.6.6-.9 1.3-.9h4.1c.4 0 .6-.2.8-.5 1.5-3.4 3-6.8 4.6-10.2l3-6.6c1.4-3 2.7-6.1 4.1-9.2.2-.5.5-.7 1.1-.7h9.6c.6 0 .7.1.4.7-.7 1.6-1.5 3.3-2.2 4.9-.9 1.8-1.7 3.7-2.5 5.5-1.1 2.5-2.2 4.9-3.3 7.4-.6 1.2-1 2.4-1.6 3.6-.7 1.5-1.3 3.1-2.1 4.6-.2.3-.1.4.2.5h.4c1.2-.1 2.4.1 3.7.1h.4c.5 0 .6.2.4.6-.4.8-.7 1.6-1 2.4-.2.5-.5.6-1 .6-1-.1-1.8-.1-2.6-.1zM18.5 53.6h.9c1.6 0 3-.6 4.2-1.7 1.2-1.1 2.1-2.4 2.8-3.9 1.4-3.1 2.8-6.2 4.2-9.4 1.9-4.3 3.9-8.6 5.8-13 1.8-4 3.7-7.9 5.3-12 .5-1.2 1-2.5 1.2-3.8.1-.4.1-1-.1-1.5-.5-1.7-1.8-2.6-3.5-2.9-1.2-.2-2.4-.2-3.5 0-1 .2-2 .5-2.8 1.2-.7.6-1.3 1.4-1.7 2.2-1.2 2.4-2.2 4.8-3.2 7.2-2 4.7-4.2 9.3-6.2 14-1.8 4.2-3.7 8.3-5.6 12.5-.8 1.8-1.7 3.6-2.4 5.5-.3.9-.7 1.9-.9 2.8-.2.9.1 1.6.9 2 .7.4 1.5.7 2.3.8h2.3zm39.2.6v.6c0 .5.2.7.6.9.7.3 1.4.4 2.1.1.8-.3 1.5-.8 2-1.5.9-1.3 1.5-2.8 2.2-4.2 1.4-3.1 2.8-6.2 4.2-9.2.9-1.9 1.8-3.8 2.6-5.8.2-.5.4-1 .5-1.5.1-1-.3-1.6-1.2-1.8-1.2-.3-2.2 0-3.1.8-.8.6-1.3 1.5-1.7 2.4-1.8 3.9-3.5 7.8-5.3 11.7-.8 1.7-1.6 3.4-2.3 5.2-.5.8-.7 1.6-.6 2.3zM145 37.9c.1 0 .3 0 .4-.1.9-.2 1.7-.4 2.6-.6 2.1-.4 4.1-1.2 6-2.1.6-.3 1.2-.7 1.6-1.2.6-.7.6-1.4.1-2.1-.6-.9-1.5-1.1-2.6-.9-3 .6-5.4 2.3-7.2 4.6-.5.6-1 1.2-1.3 1.9-.2.4-.1.5.4.5zM210.8 2h4.4c1.1 0 2.2-.2 3.3-.5 2.2-.6 4.4-1.1 6.7-1.4 2.2-.3 4.4-.2 6.5.2.8.1 1.7.3 2.5.5 1 .3 2 .7 2.9 1.3 1.1.8 1.5 1.9 1.4 3.2-.2 1.6-.9 3-1.5 4.4-1.1 2.5-2.3 5.1-3.4 7.6-1.2 2.8-2.5 5.5-3.7 8.3-1.1 2.4-2.1 4.7-3.2 7.1-1.5 3.4-3 6.7-4.6 10.1-.5 1.2-1 2.5-1.6 3.7-.3.6-.3 1.2-.2 1.9.1.8.8 1.5 1.7 1.5 1.1.1 2.2-.2 3.2-.6 2.5-1.1 4.2-2.9 5.6-5.2.9-1.6 1.6-3.4 2.4-5.1 1.2-2.6 2.4-5.2 3.5-7.8.3-.8.7-1.5 1-2.3.2-.5.5-.7 1-.8H246.7c.9 0 1 .2.7 1.1-.2.6-.5 1.1-.7 1.6-1.3 2.5-2.4 5.1-3.6 7.6-1.4 3-2.7 6-4.1 9-.9 1.9-1.7 3.9-2.3 5.9-.1.2-.1.4-.2.6-.1.6.2 1 .7 1.1 1.5.3 2.9.1 4.1-.8 1.7-1.2 3-2.8 3.8-4.8 1.8-4 3.6-8.1 5.3-12.1 1-2.4 2.1-4.8 3.2-7.2.2-.4.3-.8.4-1.2.1-.4.3-.7.8-.7s1.1-.1 1.6-.1h4.2c.9 0 1.9.1 2.8.1.5 0 .6.1.4.6-.6 1.4-1.3 2.7-1.9 4l-4.8 10.8c-.8 1.8-1.6 3.5-2.3 5.3-.2.6-.4 1.2-.5 1.8-.2 1.1.3 1.8 1.3 2 1.6.3 3.1.2 4.5-.5 1.2-.6 2.4-1.2 3.6-2 .7-.4 1.1-1 1.5-1.7.6-1.2 1.1-2.5 1.7-3.8 1-2.1 1.9-4.2 2.9-6.4l3.6-8.1c.5-1.1 1-2.3 1.5-3.5 0-.1.1-.2.1-.3.3-.5.4-.6.9-.3 1.2.6 2.5 1.2 3.6 1.9.7.4 1.5.7 2.1 1.2.3.2.5.1.7-.1.3-.2.5-.5.8-.8 1.5-1.3 3.2-2 5.1-2.2 1.9-.3 3.8-.3 5.6.1 2 .4 3.8 1.3 5.3 2.9l.3.3c.2.2.4.2.6 0 .2-.2.4-.3.5-.5.9-.9 1.9-1.5 3-1.9 1.5-.5 3-.8 4.5-.9 1.5-.2 2.9-.1 4.3.2 1.4.2 2.6.8 3.7 1.7.6.5.9 1.2 1.1 1.9.5 1.5.4 3 0 4.4-.4 2-1.2 3.8-2 5.6-1.2 2.7-2.4 5.4-3.7 8.1-.4.8-.6 1.6-.7 2.5-.2 1.2.3 1.9 1.5 2.3.8.2 1.6.1 2.3 0 1.7-.4 3.1-1.2 4.5-2.2.9-.6 1.5-1.4 1.9-2.4 1.4-3.3 2.9-6.5 4.4-9.8l4.8-10.8c.2-.4.3-.7.4-1.1.2-.5.5-.6 1-.4.9.3 1.7.8 2.5 1.3 1 .6 2 1.1 3.1 1.6.6.3.8.3 1.2-.2 1.6-1.8 3.7-2.5 6-2.8 2.2-.3 4.3-.2 6.3.5 1.6.5 3.1 1.3 4.2 2.6l.2.2c.4.4.4.4.8 0 1.7-1.9 4.1-2.7 6.6-3.1 1.2-.2 2.3-.3 3.5-.2 1.5.1 3.1.2 4.5 1s2.3 1.9 2.7 3.5c.3 1.2.1 2.5-.1 3.7-.4 2.1-1.2 4.1-2.1 6.1-1.1 2.5-2.2 4.9-3.3 7.4-.4 1-.7 2-1 3.1-.2.7.2 1.6 1.1 2.1.9.4 1.7.3 2.6.1 1.4-.3 2.7-.9 3.8-1.7 1-.7 2-1.3 2.9-2.1 1.3-1.1 2.6-2.2 3.7-3.6.3-.4.4-.4.7 0 .2.3.5.6.7.9.4.4.4.8.1 1.3-.3.6-.8 1.1-1.3 1.6-1.2 1.2-2.3 2.4-3.6 3.5-2.3 1.8-4.8 3.2-7.4 4.4-2.4 1.1-4.9 2-7.5 2.4-1.8.3-3.6.3-5.4-.2-1.7-.5-2.7-1.7-2.8-3.5 0-1.2.2-2.3.7-3.4.9-2 1.8-3.9 2.6-5.9l2.7-6c.9-1.9 1.8-3.9 2.6-5.8.2-.5.4-1 .5-1.5.6-1.7-.7-3.3-2.5-3.2-1.5.1-2.7.8-3.6 2-.2.3-.4.6-.5 1-1.2 2.6-2.3 5.2-3.5 7.8-1.2 2.6-2.3 5.1-3.5 7.7-1.4 3.1-2.7 6.2-4.1 9.2l-.3.9c-.2.7-.6 1-1.4 1h-9c-1.2 0-1.2 0-.8-1.1.8-1.8 1.7-3.7 2.5-5.5 1.2-2.6 2.3-5.2 3.5-7.8 1.1-2.4 2.2-4.9 3.3-7.3.7-1.5 1.5-3 2-4.7.3-1 .2-1.9-.6-2.6-.6-.5-1.3-.7-2-.6-1.3.1-2.3.6-3.1 1.6-.6.7-1 1.5-1.3 2.4-1.5 3.4-3 6.8-4.6 10.2-1 2.3-2 4.6-3.1 6.8-1.1 2.4-2.2 4.9-3.3 7.3-.6 1.3-.6 1.3-2.1 1.3h-9c-.6 0-.7-.2-.4-.7l1.2-2.4c.1-.1.1-.3.2-.4.1-.2.2-.4 0-.5-.1-.1-.3 0-.5 0-.5.2-1.1.5-1.6.7-2.8 1.5-5.7 2.5-8.8 3.1-2 .4-4 .4-5.9-.3-1.4-.5-2.3-1.8-2.4-3.3 0-1.2.3-2.3.8-3.4.8-1.9 1.7-3.7 2.5-5.5l4.2-9.3c.6-1.4 1.3-2.8 1.8-4.2.2-.6.2-1.2 0-1.7-.5-1.1-1.3-1.7-2.6-1.6-1.4.1-2.6.7-3.4 2-.6.9-1 2-1.5 3-1.5 3.3-2.9 6.5-4.4 9.8-1.4 3.1-2.8 6.3-4.2 9.4-.7 1.5-1.4 3.1-2 4.6-.3.6-.7.9-1.3.9h-5.2c-.5 0-1 0-1.6.1-.9.1-1.9 0-2.8-.1-.5 0-.6-.2-.4-.7.2-.5.4-1 .6-1.4 1.9-3.9 3.6-7.9 5.4-11.9 1.7-3.7 3.3-7.3 5-11 .2-.5.4-1.1.5-1.6.4-2.1-1.3-3.1-2.8-3-1.4.1-2.4.8-3.2 1.9-.7 1-1.2 2.1-1.7 3.2-1.4 3-2.7 6.1-4.1 9.1-1.4 3.2-2.8 6.3-4.2 9.5-.8 1.7-1.5 3.5-2.3 5.2-.2.5-.6.7-1.1.7h-9.5c-1 0-1-.1-.6-.9s.8-1.5 1.1-2.3c.1-.2.2-.5.2-.8 0-.2-.1-.3-.3-.3-.2.1-.5.2-.7.3-1.6.8-3.1 1.6-4.7 2.3-2.4 1-4.8 1.7-7.4 1.6-1.8 0-3.5-1.7-3.6-3v-.1c-.1-.4-.2-.5-.5-.2-.3.2-.6.4-.8.7-1.6 1.6-3.5 2.4-5.7 2.7-1.9.2-3.7.1-5.5-.2-1.3-.2-2.6-.7-3.6-1.5-1-.7-1.5-1.7-1.5-3v-2.5c0-.3-.2-.3-.4-.2-.1 0-.1.1-.1.1-.9.8-2 1.4-3.1 1.8-1.9.7-3.9 1.1-5.9.6-.8-.2-1.5-.7-1.9-1.4-.2-.3-.3-.5-.5-.8-.2-.3-.4-.3-.7-.1-.7.7-1.6 1.3-2.5 1.8-2.2 1.4-4.7 2.4-7.2 3.3-2.1.7-4.3 1.2-6.5 1.6-1.5.3-3 .4-4.6.4h-14.7c-.6 0-.7-.2-.5-.8.3-.7.6-1.3 1-2 1.1-2.3 2.1-4.7 3.2-7s2.1-4.7 3.2-7c1.6-3.5 3.2-7 4.7-10.5 1.5-3.3 3-6.7 4.5-10 1.2-2.6 2.3-5.1 3.5-7.7.8-1.8 1.6-3.7 2.4-5.5 1-2.2 1.9-4.4 2.9-6.6.2-.5.6-.7 1.1-.6 2.3-.2 4.1-.2 5.9-.2zm-13.7 51.4c.5 0 .9 0 1.4-.1 1.6-.2 3.2-.6 4.6-1.4 1.4-.7 2.8-1.5 3.9-2.7 1.4-1.4 2.5-3 3.3-4.8 1-2.1 1.9-4.2 2.8-6.3 2-4.4 3.9-8.7 5.9-13.1 1.6-3.6 3.3-7.2 4.9-10.7.4-.9.8-1.9 1-2.8.2-.9.3-1.9 0-2.8-.4-1.7-1.7-2.7-3.3-3.1-3.1-.7-6.4.7-8.1 3.3-.4.7-.8 1.3-1.2 2l-1.8 3.9-3 6.6c-1.4 3.2-2.9 6.4-4.3 9.6l-2.4 5.4c-1.3 2.8-2.5 5.6-3.8 8.5-.9 2-1.8 3.9-2.5 6-.1.3-.2.6-.3 1-.1.6.1 1 .6 1.2.2.1.5.2.8.3h1.5z"/><path d="M123.4 23.6c-.9.1-1.8-.2-2.6-.5-.7-.2-1.2-.8-1.7-1.3-.4-.5-.5-1-.3-1.6.4-1.6 1.4-2.7 2.7-3.6 2-1.3 4.2-1.8 6.6-1.7.9 0 1.8.3 2.6.8.8.6 1.3 1.4 1.4 2.3.1.6-.2 1.2-.5 1.7-.6 1-1.4 1.7-2.4 2.2-1.5.8-3 1.4-4.7 1.6h-.4c-.3.1-.5.1-.7.1z"/></svg>
